<?xml version="1.0" standalone="no"?>
<!DOCTYPE svg PUBLIC "-//W3C//DTD SVG 1.1//EN" "http://www.w3.org/Graphics/SVG/1.1/DTD/svg11.dtd" >
<svg xmlns="http://www.w3.org/2000/svg">
<metadata>
Created by FontForge 20120731 at Mon May 15 18:36:23 2017
 By admin
</metadata>
<defs>
<font id="iconfont" horiz-adv-x="1024" >
  <font-face 
    font-family="iconfont"
    font-weight="500"
    font-stretch="normal"
    units-per-em="1024"
    panose-1="2 0 6 3 0 0 0 0 0 0"
    ascent="896"
    descent="-128"
    x-height="792"
    bbox="-74 -202 1413.11 968"
    underline-thickness="0"
    underline-position="0"
    unicode-range="U+0078-E92C"
  />
<missing-glyph 
 />
    <glyph glyph-name=".notdef" 
 />
    <glyph glyph-name=".notdef" 
 />
    <glyph glyph-name=".null" horiz-adv-x="0" 
 />
    <glyph glyph-name="nonmarkingreturn" horiz-adv-x="341" 
 />
    <glyph glyph-name="x" unicode="x" horiz-adv-x="1001" 
d="M281 543q-27 -1 -53 -1h-83q-18 0 -36.5 -6t-32.5 -18.5t-23 -32t-9 -45.5v-76h912v41q0 16 -0.5 30t-0.5 18q0 13 -5 29t-17 29.5t-31.5 22.5t-49.5 9h-133v-97h-438v97zM955 310v-52q0 -23 0.5 -52t0.5 -58t-10.5 -47.5t-26 -30t-33 -16t-31.5 -4.5q-14 -1 -29.5 -0.5
t-29.5 0.5h-32l-45 128h-439l-44 -128h-29h-34q-20 0 -45 1q-25 0 -41 9.5t-25.5 23t-13.5 29.5t-4 30v167h911zM163 247q-12 0 -21 -8.5t-9 -21.5t9 -21.5t21 -8.5q13 0 22 8.5t9 21.5t-9 21.5t-22 8.5zM316 123q-8 -26 -14 -48q-5 -19 -10.5 -37t-7.5 -25t-3 -15t1 -14.5
t9.5 -10.5t21.5 -4h37h67h81h80h64h36q23 0 34 12t2 38q-5 13 -9.5 30.5t-9.5 34.5q-5 19 -11 39h-368zM336 498v228q0 11 2.5 23t10 21.5t20.5 15.5t34 6h188q31 0 51.5 -14.5t20.5 -52.5v-227h-327z" />
    <glyph glyph-name="quanbu" unicode="&#xe600;" horiz-adv-x="1138" 
d="M361 434h-99v100h99v-100zM1062 834v-900h-1000v900h1000zM461 584h-299v-400h100v150h99v-150h100v400zM711 234h-100v350h-99v-400h199v50zM961 234h-100v350h-99v-400h199v50z" />
    <glyph glyph-name="wuliangye1" unicode="&#xe611;" 
d="M334 -38q17 -7 171 -6.5t188 6.5q16 15 36.5 75t28.5 131.5t-19 123.5q-25 44 -70.5 89t-77.5 68l-33 24v340h-112v-340q-15 -14 -39.5 -36.5t-71 -74.5t-60.5 -84q-12 -26 -10 -76t10.5 -100.5t25 -91t33.5 -48.5v0zM445 713h109v-20h-109v20zM265 224h493v-20h-493v20z
M278 85h465v-20h-465v20z" />
    <glyph glyph-name="meishi" unicode="&#xe613;" 
d="M913 319q8 14 8 28q0 13 -8 27q14 6 22 14q23 24 23 57q0 23 -16 45q4 3 7 7q5 9 -1 19q-70 115 -185.5 180.5t-250.5 65.5t-250.5 -65.5t-185.5 -180.5q-6 -10 -1 -19q3 -4 7 -7q-16 -22 -16 -45t12.5 -42t32.5 -29q-8 -15 -8 -28t8 -27q-14 -7 -22 -15q-23 -23 -23 -56
q0 -22 15 -45q-15 -3 -15 -17q-1 -51 35.5 -88.5t88.5 -37.5h641h2q51 0 87.5 36.5t37.5 89.5q0 14 -15 17q15 23 15 45q0 23 -12.5 42t-32.5 29zM829 562v0h49v0v-40v0h-49v0v40zM670 658v0h48v0v-40v-1h-48v1v40zM606 722v0h48h1v-41h-1h-48v0v41zM510 530v1h49v-1v-40v0
h-49v0v40zM415 626v0h48v0v-40v-1h-48v1v40zM319 690v0h48h1v-41h-1h-48v0v41zM191 562v0h49v0v-40v0h-49v0v40zM147 451l733 1q21 0 30.5 -5.5t9.5 -21.5q0 -14 -10.5 -19t-31.5 -5h-732q-34 0 -34 27q0 4 1 7t2 5t3 4l3 3t4 2l4.5 1.5t5 0.5h4.5h4.5h3.5zM793 328
q-6 0 -11 -4l-112 -89l-112 89q-5 4 -11 4h57q9 0 26 -11.5t29 -23.5l12 -11q47 46 68 46h54zM109 262q0 17 9 23t28 6h394l76 -53h-468q-15 0 -21.5 1t-12 6.5t-5.5 16.5zM911 111v0h-791v0v50v0h791v0v-50zM878 241l-154 -1l75 51h79q40 0 40 -24q0 -26 -40 -26z" />
    <glyph glyph-name="qq" unicode="&#xe64f;" 
d="M512 834q-92 0 -175 -35.5t-143.5 -96t-96 -143.5t-35.5 -175t35.5 -175t96 -143.5t143.5 -96t175 -35.5t175 35.5t143.5 96t96 143.5t35.5 175t-35.5 175t-96 143.5t-143.5 96t-175 35.5zM760 244q-9 -8 -22.5 -0.5t-28.5 27.5q-12 -33 -32 -62q45 -15 45 -41
q0 -22 -34 -38t-83 -16q-58 0 -93 22q-34 -22 -93 -22q-48 0 -82 16t-34 38q0 26 44 41q-19 28 -32 62q-14 -20 -27.5 -27.5t-22.5 0.5q-12 11 -8 45.5t21 71.5q8 17 18 31q2 109 65 185.5t151 76.5v0q88 0 151 -76.5t66 -185.5q9 -14 17 -31q18 -37 22 -71.5t-8 -45.5z" />
    <glyph glyph-name="icon110" unicode="&#xe66b;" horiz-adv-x="1026" 
d="M960 95.5q0 45.5 -18.5 78.5t-45.5 37q-1 1 -2 1h-195q-5 0 -8 -4l-41 -62q-3 -5 0 -10l38 -61l-40 -83q-3 -4 0 -8.5t8 -4.5h238q1 0 2 1q27 4 45.5 37t18.5 78.5zM716 71q2 4 -1 9l-38 60l31 45h136q-25 -34 -25 -89.5t25 -89.5h-161zM899 8q-3 2 -5 2h-9q-3 0 -5 -2
q-15 7 -25 32t-10 55.5t10 55.5t25 32q2 -2 5 -2h9q2 0 5 2q14 -7 24 -32t10 -55.5t-10 -55.5t-24 -32zM634 212h-195q-3 0 -6 -2q-25 -7 -41 -39t-16 -75.5t16 -75t41 -39.5q3 -2 6 -2h152q6 0 8 6l41 86q2 5 -1 9l-37 53l40 65q3 5 0 9.5t-8 4.5zM574 138q-3 -5 0 -10
l38 -54l-33 -68h-125q-2 4 -7 4h-8q-2 0 -4 -1q-14 8 -23.5 32.5t-9.5 54t9.5 54t23.5 32.5q2 -1 4 -1h8q5 0 7 4h150zM360 209q11 12 24 21l-31 31l64 64l65 -64l-3 -3h51l-3 3l64 64l34 -33l-6 -34h65l49 292h7q13 0 22.5 9.5t9.5 22.5v64q0 14 -9.5 23.5t-22.5 9.5h-642
q-14 0 -23 -9.5t-9 -23.5v-64q0 -13 9 -22.5t23 -9.5h7l74 -441v-1q9 -47 39 -75.5t70 -28.5h46q-8 16 -12 33.5t-4.5 29t-0.5 35.5q0 9 2 19l-53 53l64 64zM330 283l-64 65l64 64l65 -64zM353 435l64 64l65 -64l-65 -65zM504 283l-64 65l64 64l65 -64zM631 331l-17 17
l24 24zM591 370l-64 65l56 55l64 -64zM643 550h25l-14 -85l-49 48zM597 550l-14 -14l-15 14h29zM469 550h54l37 -37l-56 -56l-64 65zM423 550l-6 -6l-6 6h12zM312 550h54l29 -28l-65 -65l-55 56zM267 550l-15 -14l-14 14h29zM170 550h22l37 -37l-45 -46zM190 428l62 62
l56 -55l-65 -65l-52 53zM200 368l21 -20l-15 -15zM308 87l-18 -18h-2q-15 0 -26 11t-14.5 20.5t-5.5 19.5l-5 25l6 6zM243 196l-17 18l-13 80l30 31l65 -64z" />
    <glyph glyph-name="liangyou" unicode="&#xe625;" 
d="M129 749l347 -347v-513l72 69v444l347 347h-766zM674 610l-416 91h508z" />
    <glyph glyph-name="qita" unicode="&#xe64e;" 
d="M208 317zM110 317q0 41 28.5 69.5t69.5 28.5t69.5 -28.5t28.5 -69.5t-28.5 -69.5t-69.5 -28.5t-69.5 28.5t-28.5 69.5zM520 317zM422 317q0 41 28.5 69.5t69.5 28.5t69.5 -28.5t28.5 -69.5t-28.5 -69.5t-69.5 -28.5t-69.5 28.5t-28.5 69.5zM832 317zM734 317
q0 41 28.5 69.5t69.5 28.5t69.5 -28.5t28.5 -69.5t-28.5 -69.5t-69.5 -28.5t-69.5 28.5t-28.5 69.5z" />
    <glyph glyph-name="jikediancanicon23" unicode="&#xe785;" 
d="M893 64q68 108 68 237q0 91 -35.5 174t-95.5 143t-143 95.5t-174 35.5t-174 -35.5t-143 -95.5t-95.5 -143t-35.5 -174t35.5 -174t95.5 -143t143 -95.5t174 -35.5q99 0 188 42q3 1 4 1q11 6 11 19q0 8 -6 14t-14 6l-11 -3v0q-81 -38 -172 -38q-111 0 -204.5 54.5t-148 148
t-54.5 204.5t54.5 204.5t148 148t204.5 54.5t204.5 -54.5t148 -148t54.5 -204.5q0 -106 -51 -198h-1q-41 22 -145.5 79.5t-116.5 64.5q17 25 29 45t27 46.5t23 41.5q6 10 -1 19q-2 4 -7 5.5t-9 1.5h-3h-127v41h186q2 0 5 1t8 6.5t5 13.5t-4.5 13t-8.5 6l-5 1h-186v65
q0 2 -1 4.5t-6 7t-13 4.5q-5 0 -9.5 -1.5t-6.5 -4t-3.5 -5t-1.5 -3.5v-2v-65h-187q-2 0 -4.5 -1t-6.5 -6t-4 -13t4 -13.5t7 -6.5l4 -1h187v-41h-147q-2 0 -4.5 -1t-7 -6t-4.5 -13t4 -13.5t8 -6.5l4 -1h270q-38 -75 -57 -99q-4 3 -21 9.5t-51 16t-66 15.5q-75 12 -121.5 -20
t-46.5 -89q0 -18 4.5 -34t15 -35t34 -31.5t56.5 -15.5q132 -15 209 124q53 -21 275 -152q10 -6 17 -6q16 0 25 16v0zM372 123q-55 5 -71 50q-15 42 16 74q34 35 102 22q68 -12 122 -39q-40 -64 -80 -88t-89 -19v0zM372 123zM513 -154q-92 0 -176.5 36t-145.5 97t-97 145.5
t-36 176.5t36 176.5t97 145.5t145.5 97t176.5 36t176.5 -36t145.5 -97t97 -145t36 -177q0 -131 -69 -240q-11 -20 -31 -20q-7 0 -21 7l-14 8q-197 116 -253 141q-80 -137 -214 -122q-29 2 -51.5 12.5t-34 24t-19 31t-9.5 30t-2 25.5q0 48 32 80q50 51 145 36q72 -12 134 -39
q17 23 45 80l2 3h-258q-9 1 -16 8t-7 20t7 20t16 7h140v26h-180q-8 2 -15 9t-7 20q0 14 7 20.5t15 6.5h180v58q1 8 8 15.5t20 7.5t19.5 -7.5t7.5 -14.5v-59h179q9 -1 17 -7.5t8 -19.5t-7.5 -20t-16.5 -8l-180 -1v-26h120v0q18 0 25 -9q10 -13 1 -28q-9 -16 -23 -40
q-29 -52 -52 -86q19 -11 80 -44q123 -69 170 -94q47 89 47 189q0 108 -53.5 200.5t-146 146t-201 53.5t-200.5 -53.5t-145.5 -146t-53.5 -201t53.5 -200.5t145.5 -145.5t201 -53.5q87 0 165 35v1l4 1q9 4 14 4q11 0 19.5 -8t8.5 -19q0 -18 -16 -25v0l-4 -2q-91 -42 -191 -42
zM512.5 742q-89.5 0 -171 -35t-140.5 -94t-94 -141t-35 -171.5t35 -171t94 -140.5t140.5 -94t171.5 -35q97 0 185 41l2 1q9 4 9 13q0 5 -4 9t-9 4q-1 0 -4 -1v-2h-5q-83 -38 -174 -38q-112 0 -207.5 55.5t-151.5 151t-56 207.5t56 207.5t151.5 151t207.5 55.5t207.5 -55.5
t151 -151t55.5 -207.5q0 -108 -52 -202l-2 -4l-8 1q-45 24 -176 97q-65 36 -87 48l-7 4l5 6q26 38 56 92q15 27 23 40q4 6 -1 12q-3 4 -13 4h-135v55h194q10 4 10 14q0 12 -10 13h-193v72q-2 9 -13 9q-12 0 -14 -10v-71h-194q-8 -1 -8 -13q0 -13 9 -14h193v-55h-154
q-9 -2 -9 -13q0 -12 10 -14h280l-12 -24q-30 -61 -50 -86l-4 -5l-5 3q-4 2 -21 8.5t-50 16t-65 15.5q-87 13 -132 -32q-28 -28 -28 -70q1 -17 4.5 -32.5t13.5 -33t32 -29t54 -14.5q13 -1 24 -1q110 0 178 122l3 5l6 -2q54 -23 262 -145l14 -8q8 -5 13 -5q12 0 19 13
q67 106 67 233q0 90 -35 171.5t-94 140.5t-141 94t-171.5 35zM388 115h-16q-42 5 -63 30.5t-20 56.5q2 31 27 54.5t70 23.5q16 0 34 -4q70 -13 124 -39l7 -4l-4 -7q-36 -58 -74 -84.5t-85 -26.5zM386 265q-38 0 -59.5 -19t-22.5 -45q-2 -26 16 -47t53 -24q8 -1 15 -1
q42 0 76 23.5t66 74.5q-49 23 -113 35q-16 3 -31 3z" />
    <glyph glyph-name="iconfontaqly" unicode="&#xe617;" 
d="M387 395h7q4 0 4 3q0 6 -4 6h-7q-5 0 -5 -6q0 -3 5 -3zM408 387q0 7 -8 7h-1h-1h-16q-2 0 -3 -4l-11 11v-3l10 -13l-1 -8q0 -2 2 -3.5t4 -1.5h2h13l5 5v3q5 2 5 7zM403 381q-1 8 -3 12q6 0 6 -6q0 -4 -3 -6zM488 474h158q19 0 30.5 0.5t26 4t22 9.5t12.5 17.5t5 27.5
q0 48 -29.5 99t-66.5 51h-158q-37 0 -67 -51t-30 -99q0 -16 5.5 -27.5t13 -17.5t22 -9.5t25.5 -4t31 -0.5zM957 266q0 75 -49.5 128t-119.5 53q-8 0 -26 -3q-7 6 -14 8.5t-11 2.5l-3 -1h-357q-45 0 -71 -103l-245 264v-85l226 -293q-5 -44 -7.5 -92t-3.5 -74v-26
q0 -38 17 -65.5t41.5 -39t49 -17.5t41.5 -6.5t17 0.5h297q29 0 52 14t34.5 30.5t20 38.5t10 31t2.5 14v0q-1 24 -3 55q45 21 73.5 66t28.5 100zM852 137q-16 198 -63 276q56 0 96 -43t40 -104q0 -41 -20 -75.5t-53 -53.5z" />
    <glyph glyph-name="xiugai" unicode="&#xe650;" 
d="M835 -60q-46 0 -78 31l-209 210l-1 1q-5 5 -11 2h-1q-70 -33 -148 -33q-72 0 -137 28q-64 27 -112.5 76t-75.5 112q-28 66 -28 138q0 51 15 101q1 1 1 2q8 18 23 22q17 4 31 -8q0 -1 1 -1l157 -157q31 -31 76 -31t76 31l15 15q32 32 32 76.5t-32 76.5l-154 154
q-16 16 -12 34q3 15 20 22h1q51 16 103 16q72 0 138 -28q63 -27 112 -76t76 -112q27 -66 27 -137q0 -72 -27 -137q-1 -2 -2 -3q-5 -8 -1 -15q3 -5 6 -8l1 -1l205 -205q40 -40 30 -95q-1 -8 -7 -12.5t-14 -3t-12.5 8t-2.5 13.5q6 37 -20 63l-205 204q-8 7 -13 16.5t-7 24
t8 29.5q24 58 24 121q0 130 -92.5 222.5t-223.5 92.5q-41 0 -82 -11l151 -151q42 -42 42 -102.5t-42 -102.5l-15 -15q-43 -43 -103 -43t-103 43l-152 151q-11 -41 -11 -84q0 -131 92.5 -223.5t222.5 -92.5q70 0 132 29q21 7 34 3t22 -14l209 -209q25 -25 59 -21
q55 18 107 22q8 0 14 -5t6.5 -12.5t-4.5 -13.5t-13 -6q-51 -4 -99 -21h-4q-7 -1 -15 -1z" />
    <glyph glyph-name="qingdan" unicode="&#xe657;" 
d="M883 871h-745q-28 0 -47.5 -20t-19.5 -47v-820q0 -27 19.5 -47t47.5 -20h487q63 -1 90 -23q5 -4 12 -4q9 0 14 7q5 6 4 13.5t-7 12.5q-37 30 -112 31h-488q-13 0 -21.5 9t-8.5 21v820q0 12 8.5 21t21.5 9h162v0v0q4 -1 10.5 -2.5t18.5 -10t18 -21.5q3 -9 7 -18.5t19 -23
t35 -16.5h2h179h2q20 3 34.5 16.5t19 23t6.5 18.5q6 13 18.5 21.5t19 10t10.5 2.5v-1v1h184q13 0 22 -9t9 -21v-820q0 -12 -9 -21t-22 -9h-89q-8 0 -13.5 -5.5t-5.5 -13t5.5 -13t13.5 -5.5h89q28 0 48 20t20 47v820q0 27 -20 47t-48 20zM617 813l-1 -2v-2l-2.5 -7.5
t-9 -12.5t-18.5 -11h-173q-24 6 -30 31v2l-1 2q-5 11 -12 21h259q-7 -10 -12 -21zM747 598h-572q-7 0 -12.5 -5.5t-5.5 -13t5.5 -13t12.5 -5.5h572q8 0 13.5 5.5t5.5 13t-5.5 13t-13.5 5.5zM747 367h-572q-7 0 -12.5 -5.5t-5.5 -13t5.5 -13t12.5 -5.5h572q8 0 13.5 5.5
t5.5 13t-5.5 13t-13.5 5.5zM175 440h382q7 0 12.5 5.5t5.5 13t-5.5 13t-12.5 5.5h-382q-7 0 -12.5 -5.5t-5.5 -13t5.5 -13t12.5 -5.5z" />
    <glyph glyph-name="qita1" unicode="&#xe618;" 
d="M341 740h-135q-59 0 -103 -35t-44 -89v-136q0 -56 45.5 -101.5t101.5 -45.5h135q93 0 109 15t16 99v33v136q0 56 -34.5 90t-90.5 34zM420 495q0 -11 1 -31q2 -14 0 -24.5t-1 -19t-2.5 -15t-4.5 -11t-7.5 -7.5t-12 -4.5t-17 -2.5t-22 -1.5t-28.5 -0.5h-105
q-44 0 -80.5 36.5t-36.5 80.5v106q0 41 35.5 67.5t81.5 26.5h105q44 0 69 -25.5t25 -69.5v-105zM341 243h-135q-59 0 -103 -35t-44 -89v-136q0 -56 45.5 -101.5t101.5 -45.5h135q55 0 90 44t35 103v136v19v34.5t-2 25.5t-3 19.5t-8.5 12t-12 8.5t-19.5 3t-25.5 2h-35.5h-19z
M420 -2q0 -46 -26 -81.5t-68 -35.5h-105q-44 0 -80.5 36.5t-36.5 80.5v106q0 41 35.5 67.5t81.5 26.5h105h21h31.5t20 -3t13.5 -5.5t5.5 -13.5t3.5 -20t-1 -32v-20v-106zM838 740h-135q-59 0 -103 -35t-44 -89v-136q0 -38 1 -59t7 -40t13.5 -26.5t26.5 -13.5t40 -7t59 -1
h135q55 0 90 44t35 103v136q0 56 -34.5 90t-90.5 34zM917 495q0 -46 -26 -81.5t-68 -35.5h-105q-29 0 -46 1t-31.5 6t-21 11.5t-11.5 21t-6 31.5t-1 46v105q0 42 35.5 68.5t81.5 26.5h105q44 0 69 -25.5t25 -69.5v-105zM838 243h-135h-32q-16 -2 -29.5 0t-24 -0.5
t-18.5 -2.5t-14.5 -4.5t-11 -7.5t-8 -11.5t-5 -15.5t-2.5 -21t-1.5 -27.5t-0.5 -33.5v-136q0 -56 45.5 -101.5t101.5 -45.5h135q55 0 90 44t35 103v136q0 56 -34.5 90t-90.5 34zM917 -2q0 -46 -26 -81.5t-68 -35.5h-105q-44 0 -80.5 36.5t-36.5 80.5v106q0 22 0.5 35t3 25
t6 17t10 10.5t15.5 5t22 1.5t30 0h30h105q44 0 69 -25.5t25 -68.5v-106z" />
    <glyph glyph-name="meishi1" unicode="&#xe66d;" 
d="M638 297l-68 34q-47 -5 -98 -5q-98 0 -181 16t-131.5 43.5t-48.5 59.5q0 36 61 66l-34 24q-58 -34 -66 -76l-1 -1v0q-1 -6 -1 -13v0q-2 -25 -3 -37v-1q-1 -11 -1 -20q0 -76 54 -140t147 -101t203 -37q96 0 180 29t141 80l-154 79h0.5h0.5zM833 445q0 -15 -11 -30l4 -3
l-1 -1l-2 -2l51 -35q1 16 1.5 34t-0.5 27v10q0 57 -88 101.5t-223 56.5l52 -49q98 -14 157.5 -43.5t59.5 -65.5zM689 111q-28 -18 -84.5 -29t-125.5 -11t-125.5 11t-83.5 29q-1 0 -2 -0.5l-1 -0.5l-20 14v-43q7 -13 17 -20v0q25 -19 83.5 -31t131.5 -12q92 0 158 18t72 44v1
v43l-19 -13h-1zM126 680q-2 2 -7 4.5t-19.5 -1t-29.5 -19.5v-54l776 -365h3.5t8 0.5t8.5 2t2.5 6.5t-6.5 12q-10 12 -194 115.5t-362.5 201t-179.5 97.5zM955 273l-710 475q-15 5 -28.5 -3t-19.5 -18l-6 -11v-37q706 -406 747 -427q18 -9 22 -4t-1 15z" />
    <glyph glyph-name="wupinjiancha" unicode="&#xe6a5;" 
d="M836 708v75h-270l52 -75h218zM576 629h52q0 -45 30 -74.5t73 -29.5q42 0 74 30t32 76v53h-217zM828 494h-252q-42 0 -64 -30l-205 -268q-11 -17 -11.5 -33.5t10 -28t24 -17.5t30 -1.5t27.5 19.5l195 236v-204zM890 494l-251 -337h282v-54h-339v-118h378v431
q0 32 -20.5 55t-49.5 23zM142 495h-30q-19 0 -33.5 -12.5t-14.5 -34.5v-298v0q0 -22 14 -34.5t34 -12.5h30v-69q0 -20 12 -34.5t34 -14.5h296q22 0 34 14.5t12 33.5v70h-388v392v0z" />
    <glyph glyph-name="wupin" unicode="&#xe644;" 
d="M852 588h-100v6q0 99 -70.5 169.5t-169.5 70.5t-169.5 -70.5t-70.5 -169.5v-6h-100l-59 -654h798zM525 146v-46h-28v44q-41 1 -67 19l10 30q29 -19 63 -19q24 0 38.5 12t14.5 31q0 33 -50 53q-36 14 -54.5 31.5t-18.5 45.5q0 27 18 46.5t48 24.5v44h28v-43q33 -1 58 -15
l-11 -29q-27 15 -56 15q-24 0 -35.5 -11.5t-11.5 -26.5q0 -17 12.5 -27.5t42.5 -23.5q35 -14 51.5 -33t16.5 -47t-18.5 -49t-50.5 -26zM723 588h-422v6q0 87 62 149t149 62t149 -62t62 -149v-6z" />
    <glyph glyph-name="nazhigu" unicode="&#xe619;" 
d="M512 827q-90 0 -172 -35t-141.5 -94.5t-94.5 -141.5t-35 -172t35 -172t94.5 -141.5t141.5 -94.5t172 -35t172 35t141.5 94.5t94.5 141.5t35 172t-35 172t-94.5 141.5t-141.5 94.5t-172 35v0zM512 -4q-105 0 -194.5 52t-141.5 141.5t-52 194.5t52 194.5t141.5 141.5
t194.5 52t194.5 -52t141.5 -141.5t52 -194.5t-52 -194.5t-141.5 -141.5t-194.5 -52v0zM426 478q0 4 1.5 9.5t8.5 19.5t17 24.5t29 18t43 4.5q30 -3 46.5 -15.5t18 -27t-0.5 -26t-6 -18.5q-4 -9 -49 -48t-52 -55q-5 -14 -8 -36.5t-3 -37.5v-15h77q-1 7 -0.5 17.5t10 34
t28.5 34.5q18 11 36 28t34 41t20 50t-6 54q-36 57 -73.5 73.5t-93.5 14.5q-56 -1 -98.5 -32.5t-57.5 -100.5l79 -11v0zM470 246h80v-88h-80v88zM470 246z" />
    <glyph glyph-name="iconfontqian" unicode="&#xe61a;" 
d="M520 813q-88 0 -169 -35t-139.5 -93.5t-93.5 -139.5t-35 -169.5t35 -169.5t93.5 -140t139.5 -93.5t169.5 -34.5t169.5 34.5t139.5 93.5t93 140t34.5 169.5t-34.5 169.5t-93 139.5t-139.5 93.5t-170 35v0zM520 -15q-106 0 -195.5 52.5t-142 142t-52.5 195.5t52.5 196
t142 142.5t195.5 52.5t196 -52.5t142 -142.5t52 -196t-52 -195.5t-142 -142t-196 -52.5v0zM626 604l-69 -128q-28 -52 -34 -69h-2q-18 42 -103 197h-65l121 -209h-99v-46h116v-63h-116v-47h116v-92h58v92h113v47h-113v63h113v46h-97l123 209h-62z" />
    <glyph glyph-name="weixin" unicode="&#xe654;" 
d="M572 384q-8 0 -14.5 -6.5t-6.5 -14.5q0 -7 6.5 -13t14.5 -6q11 0 18.5 5.5t7.5 13.5q0 9 -7.5 15t-18.5 6v0zM504 483q12 0 19.5 7t7.5 19t-7.5 18.5t-19.5 6.5t-21 -7t-9 -18t9 -18.5t21 -7.5v0zM512 834q-91 0 -174.5 -36t-143.5 -96t-96 -143.5t-36 -175t36 -174.5
t96 -143.5t143.5 -96t175 -35.5t174.5 35.5t143.5 96t96 143.5t35.5 174.5t-35.5 175t-96 143.5t-143.5 96t-175 36v0zM427 270q-31 0 -72 12l-74 -38l21 63q-83 58 -83 139q0 75 61 125.5t147 50.5q77 0 136.5 -41t72.5 -104q-11 2 -20 2q-74 0 -125 -48t-51 -116
q0 -21 6 -44q-6 -1 -19 -1v0zM733 198l14 -53l-55 32q-53 -11 -63 -11q-74 0 -125 44t-51 106.5t51 107t125 44.5q70 0 123 -44.5t53 -106.5q0 -66 -72 -119v0zM359 534q-12 0 -21.5 -7t-9.5 -18t9.5 -18.5t21.5 -7.5q11 0 18.5 7t7.5 19q0 11 -7.5 18t-18.5 7v0zM687 384
q-9 0 -15 -6t-6 -15q0 -7 6.5 -13t14.5 -6q10 0 17.5 5.5t7.5 13.5q0 9 -7 15t-18 6v0zM687 384z" />
    <glyph glyph-name="mmzl" unicode="&#xe61b;" horiz-adv-x="1025" 
d="M786 322v5t-1 6v4v7q-2 23 -7 45q-12 52 -42 96q-33 49 -84 82q-53 36 -118 45l-8 2h-9l-8 1l-13 1h-1h-10q-2 0 -17 -1q-34 -2 -66 -12q-66 -20 -116 -66q-51 -45 -77 -106q-13 -29 -19 -60q-6 -30 -6 -61q0 -23 1 -29q0 -1 0.5 -6.5t0.5 -8.5q0 -1 1 -6t1 -8l0.5 -2.5
t1.5 -4.5q1 -5 1 -6t3 -14q1 -1 4 -13q4 -10 5 -12q16 -46 46 -84q21 -29 51 -53q2 -2 12 -9q3 -3 5 -4q1 -1 3 -2.5t3 -1.5q9 -6 9 -7q4 -2 5 -2q1 -1 3 -2t3.5 -2l3 -2t2.5 -1q-6 18 -9 40q-1 0 -1 1q-9 6 -11 7l-7 6q-6 4 -8 6q-3 3 -8 7q-1 0 -2.5 1.5l-2.5 2.5l-4 4
q-1 1 -4.5 4t-4.5 5q-2 3 -10 11q-21 25 -36 54q-18 34 -26 71q-10 43 -6 86q2 22 7 44t15 44q0 1 1.5 5t2.5 6l5 10q1 1 3 5l3 6t3.5 5.5t2.5 4.5q13 20 29 37q31 36 72 60q41 23 85 31q5 1 22 4q18 2 21 2h21h6h5q3 -1 5 -1h2.5h2.5q39 -4 74 -17q30 -12 57 -30
q20 -13 39 -30q12 -13 21 -24l7 -8q-2 3 -7 8q-9 11 -22 23q-19 18 -39 31q-26 17 -57 29q-34 12 -73 16h-5q-1 1 -2.5 1h-2.5h-4h-3.5h-3.5h-21q-3 0 -21 -2q-17 -3 -21 -4q-44 -9 -84 -32q-41 -24 -72 -59q-15 -18 -27 -38l-2.5 -4t-3.5 -6q-1 -1 -6 -10q-2 -5 -5 -10
q-1 -2 -2.5 -6t-1.5 -5q-9 -22 -14 -43q-5 -22 -7 -44q-3 -42 7 -83q8 -37 26 -70q14 -28 36 -52q5 -7 9 -11q2 -2 5.5 -5t3.5 -4l4 -4q1 -1 2.5 -2t2.5 -2t4 -3.5t4 -2.5q2 -2 7 -6q1 -1 3.5 -2.5t3.5 -2.5q3 -2 6 -5q-2 20 -2 40q-21 17 -37 36q-25 29 -41 65q-1 2 -4 10
q-2 5 -4 11q0 2 -1 5.5t-2 5.5l-0.5 2t-1 3t-1 3t-0.5 3q-1 3 -2 11q-1 2 -1.5 6.5t-0.5 5.5q-1 4 -2 24v1v1v1v-1v4v7v3v2v1v6q0 2 1 13q0 3 2 13q4 26 13 51q19 53 60 94q42 42 99 63q28 10 58 13q14 2 15 2h9v0h13h4.5h3.5h7l7 -1q60 -6 111 -36q48 -28 82 -73
q30 -40 44 -89q6 -21 9 -43q0 -2 0.5 -6t0.5 -5q1 -2 1 -6v-4v-5v-2.5v-2.5v-10q0 -33 -8 -65q-1 -1 -2 -7q0 -1 -1 -3t-1 -3q-1 -2 -2 -5.5t-2 -5.5q0 -2 -1.5 -5.5t-2.5 -6.5t-2 -5l-6 -14q2 5 7 14l7 17l4 10q0 1 1 3t1 3q1 3 2 7q11 32 13 66v10l0.5 2t0.5 3v5zM454 178
v0q-1 -2 -3 -5q-22 18 -59 30l-8 2l-8 2q-2 4 -3 7q-2 3 -3 7q5 -2 7 -2q2 -1 7 -2q39 -11 65 -28q2 -6 5 -11zM540 420q0 -13 -9 -25l-30 39q-19 -23 -31 -40q-9 13 -9 27q0 30 40 69q39 -39 39 -70zM446 324.5q0 -21.5 10 -40.5q-23 17 -60 28q-20 33 -19 91
q51 -10 80 -33q-11 -24 -11 -45.5zM604 312q-36 -11 -60 -28q11 19 11 40t-11 46q29 23 79 33q1 -58 -19 -91zM543 324q0 -16 -7 -31q-9 15 -20 29q-2 3 -4.5 6t-4.5 6l-2 1l-4 5l-4 -5l-3 -3l-5 -5q-1 -2 -4 -6q-11 -14 -20 -29q-8 16 -8 32q0 18 9 38q1 3 2.5 5.5t2.5 5.5
v0q1 3 3 5l3 6q10 17 24 34q13 -16 23 -34q2 -3 3 -5q2 -3 3 -6v0l2.5 -5t2.5 -6q9 -21 8 -38zM454 271v0v0q-1 -3 -2 -5q-10 -24 -10 -44q0 -17 7 -33q-26 17 -65 28q-17 36 -16 90q11 -2 21 -5q5 -1 10 -3q5 -1 11 -4q20 -7 35 -17q4 -3 9 -7zM617 217q-39 -11 -65 -28
q6 16 6 33q1 20 -9 44q-1 3 -2 5v0.5v0.5q4 3 9 6q15 10 34 17l12 4v0l9 3q11 3 22 5q1 -54 -16 -90zM547 222q0 -16 -7 -31q-9 17 -22 34q-3 4 -5 6q-3 4 -4 5q-2 2 -3 4l-1 1l-2 2l-2 2l-3 -3l-1 -1q-2 -2 -5 -6q-2 -2 -4 -5q-2 -2 -5 -6q-13 -17 -23 -34q-7 16 -7 32
q1 19 10 41v1q1 3 3 5v1v0l2 4l1 1v1q1 2 3 5q5 10 13 21q3 4 6 9q3 3 5 6t5 6q2 -2 3 -4q3 -4 6 -7v0q2 -4 5 -8q8 -11 14 -22q1 -3 3 -6v0l1 -1q1 -3 2 -5v0v-1q2 -3 2 -5h1q9 -23 9 -42zM451 173v-1.5t-1 -1.5q-1 -3 -2 -5.5t-2 -5.5q-7 -21 -8 -39q0 -14 5 -28
q-29 19 -71 30q-15 37 -14 89q9 -1 18 -4l8 -2l8 -2q37 -12 59 -30zM629 122q-42 -11 -71 -30q4 13 4 27q0 19 -7 40l-2 6t-2 5q-1 1 -2 3q23 18 59 30q5 1 9 2l8 2q9 3 18 4q1 -52 -14 -89zM551 119q0 -15 -6 -30q-11 20 -25 39q-3 3 -5 6v0q-1 2 -4 5v0.5t-1 1.5
q-2 1 -3 3l-2 2l-1 1v1l-3 2v0l-3 -3l-1 -1v0l-3 -3q0 -1 -1 -2t-2 -1l-1 -2v0v0l-5 -5q-1 -3 -4 -6q-15 -19 -25 -38q-6 15 -6 31q0 17 8 38l2 6v0q1 1 1 3v0q1 1 1 2l1 1l1.5 3t0.5 2q1 1 1.5 2t0.5 2q7 14 18 28q2 4 5 8q2 3 4.5 6t6.5 7q2 -3 5 -6q3 -4 5 -6q2 -4 5 -8
q10 -14 18 -29q0 -1 1 -3t2 -3q0 -1 1 -3v-0.5t0.5 -0.5t0.5 -0.5t0.5 -1t0.5 -1.5v-1q1 0 1 -0.5v-0.5l2 -6q8 -21 8 -39v0zM449 74q-3 -5 -4 -10q-2 -3 -2.5 -5l-1.5 -6q-6 -19 -6 -36q0 -11 2 -22q-31 19 -76 30q-14 39 -13 90q8 -1 16 -3q4 -1 7 -1.5t7 -2.5
q45 -13 71 -34v0zM640 25q-45 -11 -77 -30q3 10 3 22q0 17 -6 36l-2 6t-2 5l-4 10q26 21 70 34l8 2t7 2q7 2 15 3q1 -51 -12 -90v0zM554 17q0 -16 -6 -31q-11 21 -27 43q-1 2 -4 6h-1q-1 2 -1 3l-2 2v0l-1 1l-1 1l-2 2v0q0 1 -0.5 1.5t-1.5 0.5q0 1 -1 2l-1 1v0l-3 4h-1
l-1 -1l-3 -3l-1 -1q0 -1 -2 -2q-1 -1 -2 -3v0l-0.5 -0.5l-1 -1l-1.5 -1.5l-1 -1v0q-1 -1 -1 -2q-1 0 -1.5 -1l-0.5 -1l-1 -1v-1l-5 -5q-16 -21 -27 -43q-6 16 -6 32q0 17 6 35q1 3 2 5l2 6q1 0 1 1t1 2q0 2 1 4l1 1q0 1 2 5l0.5 0.5l0.5 0.5q8 17 21 34q2 4 5 7l4 6q4 5 8 9
v0v0l6 -8q3 -3 5 -6q3 -3 5 -7q13 -18 21 -35v0q2 -3 3 -6v-1q1 -1 2 -4q1 -1 1 -2v-1q2 -3 3 -6q0 -2 1 -5q6 -19 6 -35v0zM454 -148q-53 2 -80 36q-34 42 -32 130q6 -1 10 -2t7 -2q4 -1 7 -2q48 -13 77 -35q2 -1 4 -3l-0.5 -1l-0.5 -1l-6 -14q0 -3 -1 -6t-2 -5
q-5 -17 -5 -32q0 -34 22 -63zM626 -112q-27 -34 -80 -37q22 30 22 64q0 15 -4 32q-1 3 -2 5l-2 6q-2 7 -5 14q0 1 -1 2l3 3q29 22 77 35q3 1 7 2q5 1 7 2q5 1 11 2q2 -88 -33 -130zM557 -85q0 -34 -25 -63q-8 -9 -32 -9t-32 9q-24 29 -24 63q0 14 4 30l2 6q1 2 2 6l1 2
q1 4 3 7v0q1 4 2 6h0.5h0.5q1 3 2 5q9 17 21 36q3 3 5.5 6.5t4.5 5.5q1 2 2 3l4 4q1 2 2 3v1h0.5h0.5v0q1 -1 2.5 -3t2.5 -3l1 -1v0q0 -1 1 -1.5t1 -1.5q3 -3 4 -6q3 -3 5 -6q13 -19 22 -37l2 -4l0.5 -0.5l0.5 -0.5q1 -2 2 -5v-1l3 -6l1 -3q1 -4 2 -6q1 -3 1 -6q5 -16 5 -30
v0zM942 327q-8 117 -76 216l-8 12q-2 2 -3.5 4t-3 4.5t-2.5 3.5l-5 6l-5 6q-9 10 -9 11l-21 21l-4.5 4t-6.5 6l-11 10q-2 2 -6.5 5.5l-4.5 3.5q-9 7 -12 9l-12 9l-13 8l-6 4l-6 4q-1 0 -6 3t-7 4q-23 11 -27 13q-23 11 -55 21l-18 5l-4 1l-17 4h-1h-1l-16 3q-1 0 -15 2
l-6 0.5t-9 0.5q-21 2 -29 2h-11h-18q-2 0 -4.5 -0.5t-5.5 -0.5h-4q-13 -1 -15 -1.5t-6.5 -1t-7.5 -1t-8.5 -1.5l-5.5 -1q-3 0 -28 -6q-2 -1 -4.5 -1.5l-5 -1t-4.5 -1.5l-7 -2l-6 -2q-2 -1 -6.5 -2.5l-7.5 -2.5q-2 0 -6.5 -2t-6.5 -3q-1 0 -3 -1t-4 -1l-6 -3l-13 -6
q-22 -11 -24 -13q-20 -11 -47 -30q-86 -64 -130 -160q-8 -17 -10 -22l-4 -12q-1 -2 -2.5 -6t-1.5 -5t-1.5 -5t-2.5 -7q0 -2 -1.5 -5.5t-1.5 -5.5q-1 -2 -6 -23l-1 -5l-1 -6q0 -1 -0.5 -5t-1.5 -6q-1 -8 -1 -12q-1 -2 -1 -6v-5q-1 -2 -1.5 -6.5t-0.5 -8.5v-7q-1 -18 -1 -21
q1 -47 9 -82q0 -5 9 -37q0 -1 2 -8l3 -9q1 -2 3 -8q0 -1 2 -4q0 -1 0.5 -2.5l0.5 -1.5q23 -56 59 -104q2 -1 4.5 -4.5t3.5 -4.5q3 -4 3.5 -4.5l2.5 -2.5q1 -1 1 -2q11 -12 14 -15l7 -6q3 -4 6 -6q0 -1 4.5 -5t6.5 -5l20 -17q-7 6 -20 17q-1 2 -3 3.5t-4 4t-3 3.5l-6 6
q-6 6 -6 7q-6 6 -14 15l-1.5 2t-2 2.5t-1.5 2t-2 2.5q-1 2 -3.5 5t-3.5 5q-34 47 -54 103q0 1 -0.5 2.5t-1.5 1.5q0 3 -1 5t-3 8q0 1 -1 4t-1 4q-2 7 -3 9q-6 31 -7 36q-6 34 -5 79q0 2 1 21q0 4 1 12t1 9q1 1 1 5t1 6q0 2 0.5 3.5t1 4t0.5 3.5q0 2 1 5.5t1 5.5l1 5l2 5
q5 20 6 22q2 6 3 11q1 2 2.5 6t1.5 5q1 1 4 11q1 1 2.5 4.5t2.5 5.5q2 5 10 21q45 89 128 147q90 62 195 69q1 1 13 1q1 0 6 0.5t7 0.5h17l10 -1q6 0 26 -2q3 -1 8 -1.5t6 -0.5l13 -3l16 -3l20 -5l3 -1l12 -4q29 -11 50 -21q2 -1 23 -13q2 -1 6.5 -3.5t4.5 -3.5l6 -3l5 -4
l11 -7l11 -9q3 -2 10 -8q1 -1 4.5 -4t5.5 -5l10 -9q2 -1 5 -5t4 -4q2 -2 17 -20q2 -2 5 -5.5t4 -4.5l4 -5l4 -5q0 -1 3 -5t4 -6l7 -11q56 -89 60 -191q2 -46 -9 -95l-1 -6v-1v0l-1 -1v-3l-4 -12q0 -2 -3 -11l-1.5 -4.5t-2 -6.5t-2 -6t-1.5 -5q-4 -10 -5 -10q-8 -20 -9 -20
q-19 -39 -46 -73q-26 -31 -57 -56t-67 -43q-3 -24 -9 -43q0 1 1.5 1.5t2.5 0.5q3 1 8 4q1 1 4.5 2.5t5.5 2.5t11 5q1 1 5.5 3.5t7.5 3.5q31 18 59 42q38 32 65 70q1 1 4 4.5t4 5.5t4 6.5t3.5 5t3 5t4.5 6.5l6 12q1 2 7 13q0 1 2.5 5.5t3.5 7.5q4 9 6 14l2 3v1v0v1l1 1
q1 3 3 7q0 2 1 4.5l1 2.5l2 4l1 3q0 1 5 15q0 3 1.5 8.5t2.5 6.5l0.5 3t0.5 5q1 4 2 7q0 2 1 4.5t1 3.5l1 4v4q2 12 3 16q2 23 3 32q1 34 -2 66q-4 34 -13 67q-19 67 -60 125q-20 30 -44 54q-25 24 -53 45l-11 7l-4 2q0 1 -5.5 4.5t-8.5 4.5q-3 2 -7.5 4.5t-7.5 4.5
q-3 1 -8.5 4t-6.5 3q-1 1 -3.5 2t-4.5 2l-8 3q-13 6 -15 7q-14 5 -16 6q-14 4 -15 5q-61 18 -125 17q-56 -1 -112 -17q-22 -7 -47 -18q-6 -2 -21 -10l-6 -3l-4 -2l-10 -5q-33 -19 -60 -43q-16 -13 -35 -33l-11 -12q4 4 11 13q19 19 34 33q28 23 61 43q3 2 9 5q1 0 4.5 2
t5.5 3q15 8 21 10q25 11 48 18q55 17 112 19q64 1 126 -17q1 -1 15 -5q2 -1 16 -6q3 -1 16 -6l8 -4q1 0 4 -1.5l3 -1.5q1 -1 7 -3.5t9 -4.5t15 -8q3 -2 8.5 -5.5t6.5 -3.5l3 -3l4 -2l7 -5q29 -20 54 -45q24 -24 46 -54q41 -58 61 -126q9 -33 13 -68q4 -32 3 -67
q-1 -9 -3 -33q0 -3 -1 -8.5t-1 -8.5l-1 -3l-1 -4q0 -3 -1 -8l-2 -8q0 -2 -1 -4.5t-1 -3.5t-1.5 -6.5t-2.5 -8.5l-5 -15l-1 -4l-1 -3q-2 -4 -3 -8q0 -1 -1 -3.5t-1 -3.5l-1 -1v-1v0l-1 -1l-1 -4q-1 -1 -3 -6l-3 -7.5t-3.5 -7.5t-2.5 -6q-6 -11 -7 -13q-7 -11 -7 -12
q-1 -3 -4 -7t-3.5 -5t-3 -5t-4.5 -7q-7 -10 -8 -11q-27 -38 -65 -71q-30 -25 -61 -43q-3 -2 -8 -4.5t-5 -3.5q-9 -5 -12 -6l-5 -2.5l-5 -2.5q-5 -2 -8 -3q-9 -4 -13 -6q-7 -16 -16 -27q-11 -14 -27 -22q14 4 27 8q80 29 144 84q36 31 65 69q31 41 51 88q2 2 10 24q1 1 5 12
q2 7 4 13q1 4 4 13q3 11 3 14q3 11 3 12l1 3v2v2l2 7q10 57 6 110v0z" />
    <glyph glyph-name="2" unicode="&#xe61f;" 
d="M384 630q-2 15 11 15q5 0 8 -3.5t3 -7.5l1 -4q0 -18 1 -44t1.5 -90t-2.5 -69q-3 -17 -6 -27.5t-9 -23t-15.5 -18.5t-23.5 -6q-9 -245 0 -317.5t9 -106.5v-4.5t-2 -9t-6 -12t-13 -9.5t-22 -4q-17 0 -27.5 3t-15 9.5t-6 12t-1.5 14.5q0 3 7 65.5t12 145.5t0 210q-3 1 -7 2
t-15 7.5t-19.5 16t-15.5 29t-7 44.5q0 72 4 130t11 61q6 2 8.5 -2t2.5 -10q0 -178 11 -186q8 -5 11.5 -0.5t3.5 11.5q0 36 4 117t11 82q2 0 4 -2t3 -5.5t1.5 -8t0.5 -10v-9v-8v-5.5q0 -13 1 -43t3.5 -70t7.5 -45q7 -7 11.5 -0.5t5.5 15.5q0 1 1 22.5t2.5 48.5t3.5 55
t4.5 46.5t4.5 18.5q5 0 5.5 -22.5t-0.5 -28.5q-1 -13 3.5 -81.5t11.5 -73.5q8 -5 12.5 2t4.5 16zM578 717q5 0 5 -11v-425q-2 -58 -5 -75q-3 -10 -2 -112t4 -136q1 -3 1 -9q3 -23 3.5 -41t-8 -29t-29.5 -11q-30 0 -37 10t-8 36v6q-1 6 7 112t5 163q-1 35 -20 133t-11 144
q1 5 5 27.5t5.5 30t5.5 28.5t7 31.5t8.5 28.5t11.5 29t14 25t17.5 25t20.5 20zM734 359v-191q4 -186 -15 -224q-13 -26 -0.5 -45t34.5 -20q25 -1 41 14.5t6 47.5q-7 21 -12 124t-7 196l-1 93q3 2 8.5 6t20 17t25.5 26t20.5 33t9.5 39q0 48 -37.5 93.5t-63.5 45.5
q-25 0 -69.5 -43.5t-44.5 -73.5q0 -98 85 -138z" />
    <glyph glyph-name="zixuangu" unicode="&#xe606;" 
d="M512 834q-122 0 -226 -60t-164 -164t-60 -226t60 -226t164 -164t226 -60t226 60t164 164t60 226t-60 226t-164 164t-226 60zM681 355h-140v-140q0 -12 -8.5 -20.5t-20.5 -8.5t-20.5 8.5t-8.5 20.5v140h-139q-12 0 -20.5 8.5t-8.5 20.5t8.5 20.5t20.5 8.5h140v139
q0 12 8.5 20.5t20.5 8.5t20.5 -8.5t8.5 -20.5v-140h140q12 0 20.5 -8.5t8.5 -20.5q-2 -11 -10.5 -19.5t-19.5 -8.5z" />
    <glyph glyph-name="fangwuqiuzuzhaozu" unicode="&#xe6ee;" 
d="M287 334h80v-80h-80v80zM258 632q0 12 -9 21.5t-22 9.5h-58q-13 0 -22 -9.5t-9 -21.5v-109l120 100v9zM454 176v-92h-264v344l251 212l144 -121q43 22 92 29l-209 177q-12 10 -27 10t-26 -10l-334 -283q-13 -11 -14.5 -27.5t9.5 -29.5t28 -14.5t30 9.5l5 4v-325
q0 -11 7.5 -18.5t18.5 -7.5h412q-87 50 -123 143v0zM712 524q-101 0 -173 -72t-72 -173.5t72 -173.5t173.5 -72t173.5 72t72 173.5t-72 173.5t-174 72v0zM712 91q-77 0 -132 55t-55 132.5t55 132.5t132.5 55t132.5 -55t55 -132.5t-55 -132.5t-133 -55v0zM729 236h-27
q-9 0 -9 -8v-22h-22q-8 0 -8 -9v-12v-1q2 -12 -6 -20q-7 -7 -16.5 -7t-16.5 7t-7 16.5t7 16.5l70 69q6 6 0 12t-12 0l-70 -70q-11 -11 -11 -27.5t11.5 -28t28 -11.5t27.5 11q14 14 11 33v4h23q8 0 8 8v23h23q3 0 5 2l11 10q-8 3 -16 7l-4 -3v0zM701 318q0 -31 22.5 -53.5
t54 -22.5t54 22.5t22.5 54t-22.5 54t-54 22.5t-54 -22.5t-22.5 -54.5v0zM783 357q7 7 17 7t17 -7t7 -17t-7 -17t-17 -7t-17 7t-7 17t7 17v0zM783 357z" />
    <glyph glyph-name="che" unicode="&#xe620;" 
d="M873 415l-73 187q-25 66 -98 66h-102q-34 78 -51 78h-73q-8 0 -20.5 -19.5t-21.5 -38.5l-8 -20h-104q-73 0 -98 -66l-72 -187q-27 -3 -53.5 -30.5t-26.5 -70.5v-237h81v-60q0 -33 17.5 -51.5t38 -18.5t37.5 19t17 51v60h498v-60q0 -32 17 -51t37.5 -19t38 18.5t17.5 51.5
v60h81v237q0 43 -26.5 70.5t-52.5 30.5zM281 564q11 36 41 36h381q29 0 40 -36l55 -144h-572zM249 220q-26 0 -44 19t-18 45.5t18 45.5t44 19t44 -19t18 -45.5t-18 -45.5t-44 -19zM775 220q-26 0 -44 19t-18 45.5t18 45.5t44 19t44 -19t18 -45.5t-18 -45.5t-44 -19z" />
    <glyph glyph-name="tianjia" unicode="&#xe655;" 
d="M511.5 834q-91.5 0 -174.5 -35.5t-143.5 -96t-96 -143.5t-35.5 -174q0 -146 87 -265l33 36q-72 103 -72 229q0 109 54 201t146 146t201 54t201.5 -54t146.5 -146t54 -201t-54 -201.5t-146.5 -146.5t-201.5 -54q-124 0 -227 71l-30 -37q116 -82 257 -82q92 0 175 35.5
t143.5 96t96 143.5t35.5 174.5t-35.5 174.5t-96 143.5t-143.5 96t-174.5 35.5zM495 609v-208h-208v-48h208v-209h48v209h209v48h-209v208h-48z" />
    <glyph glyph-name="wengu" unicode="&#xe607;" 
d="M200 487.5q0 -55.5 39.5 -94.5t95 -39t94.5 39t39 94.5t-39 95t-94.5 39.5t-95 -39.5t-39.5 -95zM603 66q1 8 -1 26q-17 119 -126 198l-29 18l-112 -141h-2l-112 141q-6 -2 -15 -8t-33 -25.5t-43.5 -42.5t-38.5 -60.5t-25 -79.5q-2 -18 -1 -26v-1.5v-0.5q0 -24 78.5 -40
t190.5 -16t190.5 16t78.5 40v0.5v1.5zM546 602.5q0 -9.5 6.5 -16t16 -6.5t16 6.5t6.5 16t-6.5 16t-16 6.5t-16 -6.5t-6.5 -16zM645 602.5q0 -9.5 7 -16t16.5 -6.5t16 6.5t6.5 16t-6.5 16t-16 6.5t-16.5 -6.5t-7 -16zM745 602.5q0 -9.5 6.5 -16t16 -6.5t16.5 6.5t7 16t-7 16
t-16.5 6.5t-16 -6.5t-6.5 -16zM873 789h-409q-35 0 -59.5 -24.5t-24.5 -59.5v-26q9 -2 16 -4v30q0 29 20 49t48 20h409q28 0 48 -20t20 -49v-218q0 -28 -20 -48t-48 -20h-240l-93 -94v94h-21q-3 -8 -7 -15h13v-116l114 116h234q34 0 58.5 24.5t24.5 58.5v218
q0 35 -24.5 59.5t-58.5 24.5z" />
    <glyph glyph-name="guquanchoujiang" unicode="&#xe63f;" 
d="M890 79l-99 148q88 103 88 239q0 99 -49 183.5t-133.5 133.5t-184.5 49t-184.5 -49t-133.5 -133.5t-49 -183.5q0 -136 88 -239l-99 -148q-5 -6 -3.5 -14.5t8.5 -12.5l31 -23q7 -5 15 -3l59 10l10 -61q2 -8 8 -13l31 -23q6 -3 12 -3h4q8 1 13 9l110 162q39 -8 80 -8t80 8
l110 -162q5 -8 13 -9h4q6 0 12 3l31 23q6 5 8 13l10 61l59 -10q8 -2 15 3l31 23q7 4 8.5 12.5t-3.5 14.5v0zM300 -15l-7 5l-12 73q-2 9 -9 14t-15 3l-70 -13l-8 6l83 124q57 -53 129 -78zM512 139q-89 0 -164 44t-118.5 119t-43.5 163.5t43.5 163.5t118.5 119t164 44
t164 -44t118.5 -119t43.5 -163.5t-43.5 -163.5t-118.5 -119t-164 -44zM837 67l-70 13q-8 2 -15 -3t-9 -14l-12 -73l-7 -5l-91 134q72 25 129 78l83 -124zM385 649q-22 0 -39 2q3 -16 3 -75q0 -154 -11 -217q-7 -39 -26 -69q12 -8 22 -22q17 28 25 59.5t12 89.5h60v-105
q0 -9 -3 -11t-13 -2q-12 0 -33 4q6 -15 6 -28q19 -2 33 -2q20 0 27.5 7.5t7.5 28.5v298q0 30 2 44q-13 -2 -34 -2h-39zM431 442h-58q1 22 1 47v15.5v16.5h57v-79zM431 546h-57l1 14v64h56v-78zM674 447q5 11 9 17l-16 18q-11 -1 -34 -1h-116q-25 0 -40 2v-29q20 2 35 2
q16 -35 27 -54q15 -23 35 -44q-48 -42 -110 -65q13 -11 19 -25q37 17 59 31.5t50 39.5q46 -42 113 -69q6 14 17 27q-62 20 -111 61q38 39 63 89zM539 456h109q-21 -43 -56 -80q-30 31 -53 80zM488 492q27 19 41 49q16 34 17 85h72v-87q0 -17 10.5 -22t43.5 -5q18 0 40 2
l2 27q-15 -4 -40 -4q-17 0 -23.5 2.5t-6.5 7.5v63q0 26 2 42q-15 -2 -37 -2h-56q-18 0 -36 2q2 -16 2 -27q0 -40 -11 -65q-13 -31 -44 -48q14 -7 24 -20z" />
    <glyph glyph-name="guquanzhongchou" unicode="&#xe640;" 
d="M961 383q0 90 -34 172t-97.5 145.5t-145.5 97.5t-172 34t-172 -34t-145.5 -97.5t-97.5 -145.5t-34 -172q0 -91 35 -174q34 -81 97 -143q63 -64 145 -98t172 -34q85 0 164 31q-9 21 -13 35q-73 -29 -151 -29q-112 0 -207 55t-150 150t-55 207t55 207t150 150t207 55
t207 -55t150 -150t55 -207q0 -52 -13 -102h-6q-18 0 -31 -13t-13 -31.5t13 -31.5t31 -13t31 13t13 32q0 12 -6 22q18 61 18 124zM628 107q-62 0 -109 42h-264l22 107q17 43 50 75q32 32 73 50q-34 18 -54.5 52.5t-20.5 74.5q0 60 42.5 102.5t102.5 42.5t102.5 -42.5
t42.5 -102.5q0 -46 -26 -83q19 4 39 4q67 0 114 -47t47 -114t-47 -114t-114 -47zM550 365l-3 -3q-5 -4 -10 -9q-33 -36 -33 -85q0 -51 36.5 -87.5t88 -36.5t87.5 36.5t36 87.5t-36 87.5t-88 36.5q-44 0 -78 -27zM300 186h188q-22 37 -22 82q0 52 31 94q-42 1 -81 -15
q-35 -15 -63 -42q-27 -27 -41 -62zM470 616q-45 0 -76.5 -31.5t-31.5 -76.5t31.5 -76.5t76.5 -31.5t76.5 31.5t31.5 76.5t-31.5 76.5t-76.5 31.5zM631 311l-23 25q-4 6 -6 8q-4 4 -10 6.5t-11 -2.5q-4 -6 -2 -11.5t5 -9.5l7 -7q1 -2 11 -14q7 -8 16 -18v-11h-33
q-4 0 -7 -3.5t-3 -8t2.5 -7.5t7.5 -3h33v-19h-33q-4 0 -7 -2.5t-3 -7.5q-1 -4 2 -7t8 -3h33v-11q0 -7 4 -10t9 -3q6 0 9.5 4.5t3.5 8.5v11h34q4 0 7.5 2.5t2.5 7.5q0 11 -13 11h-31l1 18l31 1q6 -1 9 2.5t3 8.5q0 4 -3 7.5t-10 3.5h-31v10q8 8 15 16q5 6 11 13t9 9
q11 11 5 19q-3 5 -8.5 5t-9.5 -5q-2 -1 -8 -7l-12 -12q-1 -1 -6 -6.5t-9 -8.5v0z" />
    <glyph glyph-name="meishi2" unicode="&#xe623;" 
d="M840 456h-85v18q41 14 68 51t27 84q0 68 -50.5 110.5t-121.5 28.5q-23 41 -64 63.5t-88 22.5q-72 0 -131 -58q-18 8 -49 8q-57 0 -100 -35.5t-54 -90.5q-41 -6 -69.5 -39.5t-28.5 -76.5q0 -47 34.5 -80t81.5 -33h32v-355q0 -58 37.5 -99t88.5 -41h256q54 0 92.5 41
t38.5 99v4l95 14q34 6 55 28t21 52v208q3 30 -22.5 53t-63.5 23zM444 74q0 -24 -17 -41.5t-41 -17.5t-41 17.5t-17 41.5v314q0 24 17 41.5t41 17.5t41 -17.5t17 -41.5v-314zM719 514q-8 -23 -27 -36v-4q0 -32 -22 -54v0q-9 -8 -14 -15t-12.5 -20.5t-6.5 -30t10 -33.5
q9 -9 9 -23t-10 -25t-26 -11q-14 0 -25 10t-11 26q0 3 2 9.5t2 8.5q36 51 -18 90v0q-24 12 -31 50q-2 0 -6.5 -2t-6.5 -2q-21 0 -35.5 14.5t-14.5 34.5q0 9 4 13q-4 4 -10.5 8.5t-15.5 10.5t-14 9l-14 13l-18 -9q-19 -20 -48 -24.5t-55 6.5l-23 9l-8 -23q-7 -17 -25 -28.5
t-39 -11.5q-26 0 -46.5 20t-20.5 47.5t21 47.5t51 20v0h23v23q3 55 51.5 85.5t100.5 4.5l18 -10l14 23q46 54 108 54q38 0 71.5 -20t50.5 -57l8 -18l18 5q10 5 32 5q40 0 67 -28.5t27 -66.5q0 -36 -25.5 -63.5t-59.5 -31.5zM850 177q0 -4 -4 -8.5t-10 -4.5l-81 -14v234h85
q4 0 4.5 -0.5t0.5 -3.5v-203h5z" />
    <glyph glyph-name="11350" unicode="&#xe649;" horiz-adv-x="1025" 
d="M880 566v0q0 35 -29 72t-77.5 67t-118 49t-143.5 19t-143.5 -19t-118 -49t-77.5 -67t-29 -72v-21h736v21v0zM190 587q21 52 114.5 98t207.5 46t207.5 -46t114.5 -98h-644zM144 202q0 -20 0.5 -32.5t4.5 -37t12 -40.5t24 -36.5t39 -32t59.5 -20t81.5 -8.5h285
q48 1 85.5 10t61 20.5t40.5 31.5t25 35.5t12.5 39.5t5 36.5t0.5 33.5v21h-736v-21zM838 181q0 -23 -3.5 -40.5t-14.5 -37.5t-30.5 -33t-55 -22.5t-84.5 -10.5q-13 -1 -285 -1q-55 0 -91.5 11t-54.5 33t-25 45t-8 56h652zM694 510q-33 26 -67.5 26t-68.5 -26q-24 -18 -46 -18
t-46 18q-34 26 -68.5 26t-67.5 -26q-24 -18 -46.5 -18t-46.5 18q-33 26 -68 26v-37q23 0 46 -18q34 -25 68.5 -25t68.5 25q23 18 45.5 18t46.5 -18q33 -25 68 -25t68 25q24 18 46.5 18t45.5 -18q34 -25 68.5 -25t68.5 25q23 18 46 18v37q-35 0 -68 -26q-24 -18 -46.5 -18
t-46.5 18zM866 440h-709q-39 0 -67 -28t-28 -68t28 -68t68 -27l709 -1q39 0 67 29t28 69t-28 67t-68 27zM879 302q-37 0 -73 27q-26 19 -50 19t-49 -19q-36 -27 -73 -27t-73 27q-25 19 -49 19t-49 -19q-36 -27 -73 -27t-73 27q-25 19 -49 19t-50 -19q-36 -27 -73 -27v38
q24 0 50 20q35 27 72.5 27t72.5 -27q26 -20 50 -20t49 20q36 27 73 27t73 -27q25 -20 49 -20t50 20q35 27 72.5 27t72.5 -27q26 -20 50 -20v-38z" />
    <glyph glyph-name="liangyou1" unicode="&#xe761;" 
d="M353 -45q-107 0 -148.5 47.5t-27.5 145.5q66 2 110 -26.5t66 -77.5q21 49 65.5 77.5t110.5 26.5q13 -98 -28 -145.5t-148 -47.5v0zM808 387v154h44v-154h-44v0zM741 387v186h44v-186h-44v0zM605 387v154h44v-154h-44v0zM673 387v186h45v-186h-45v0zM730 231
q-78 -1 -107.5 33.5t-20.5 105.5q94 2 128 -76q33 78 127 76q10 -71 -20 -105.5t-107 -33.5v0zM730 90q77 0 107 34.5t20 105.5q-94 2 -127 -76q-34 78 -128 76q-9 -71 20.5 -105.5t107.5 -34.5v0zM730 -45q-78 0 -107.5 34.5t-20.5 105.5q94 2 128 -76q33 78 127 76
q10 -71 -20 -105.5t-107 -34.5v0zM461 552v214h61v-214h-61v0zM368 552v258h61v-258h-61v0zM180 552v214h62v-214h-62v0zM274 552v258h62v-258h-62v0zM353 336q-107 -1 -148.5 46.5t-27.5 146.5q66 1 110 -27t66 -78q21 50 65.5 78t110.5 27q13 -99 -28 -146.5t-148 -46.5v0
zM353 142q107 -1 148 46.5t28 146.5q-66 1 -110.5 -27t-65.5 -78q-22 50 -66 78t-110 27q-14 -99 27.5 -146.5t148.5 -46.5z" />
    <glyph glyph-name="iconfontanquan" unicode="&#xe64d;" 
d="M512 -43q-8 3 -21 8t-50.5 22.5t-72 37t-76 51t-71.5 64.5t-51 77t-21 89v375l363 130l363 -130v-375q0 -45 -20 -89t-52 -77.5t-71 -63.5t-77.5 -51.5t-70.5 -37t-52 -22.5zM663 517l-181 -181l-100 99l-60 -60l99 -99v0l61 -61l60 61v0l181 181z" />
    <glyph glyph-name="regu" unicode="&#xe603;" 
d="M956 -5q0 -23 -16 -39t-39 -16h-778q-23 0 -39 16t-16 39v0q0 23 16 39.5t39 16.5h778q23 0 39 -16.5t16 -39.5v0zM530 828h-186q-12 0 -17 -11.5t4 -20.5l40 -40l-206 -205q-14 -14 -14 -33.5t14 -33.5l40 -40q13 -13 32.5 -13t33.5 13l206 206l40 -39q8 -9 20 -4.5
t12 17.5v185q0 8 -5.5 13.5t-13.5 5.5v0zM207 384q-23 0 -39.5 -16.5t-16.5 -38.5v-167q0 -23 16.5 -39.5t39.5 -16.5h55q23 0 39.5 16.5t16.5 39.5v167q0 22 -16.5 38.5t-39.5 16.5h-55zM595 162q0 -23 -16 -39.5t-39 -16.5h-56q-23 0 -39 16.5t-16 39.5v333q0 23 16 39.5
t39 16.5h56q23 0 39 -16.5t16 -39.5v-333zM873 162q0 -23 -16.5 -39.5t-39.5 -16.5h-55q-23 0 -39.5 16.5t-16.5 39.5v555q0 23 16.5 39.5t39.5 16.5h55q23 0 39.5 -16.5t16.5 -39.5v-555z" />
    <glyph glyph-name="gegu" unicode="&#xe622;" 
d="M512 834q-186 0 -318 -132t-132 -318t132 -318t318 -132t318 132t132 318t-132 318t-318 132zM815 116v409q0 10 -6.5 16.5t-16 6.5t-16 -6.5t-6.5 -16.5v-453q-43 -36 -95 -59v372q0 9 -6.5 16t-16 7t-16 -7t-6.5 -16v-388q-45 -14 -95 -17v673q0 9 -7 15.5t-16 6.5
t-15.5 -6.5t-6.5 -15.5v-673q-51 3 -95 16v480q0 9 -7 15.5t-16 6.5t-15.5 -6.5t-6.5 -15.5v-463q-53 23 -95 59v0v259q0 9 -7 15.5t-16 6.5t-15.5 -6.5t-6.5 -15.5v-215q-103 115 -103 268q0 110 54.5 203t147.5 147.5t203 54.5t203.5 -54.5t147.5 -147.5t54 -203
q0 -153 -102 -268z" />
    <glyph glyph-name="guquanxieyi" unicode="&#xe641;" 
d="M912 -22h-243v22q0 21 21 21q99 1 200 0q22 0 22 -22v-6.5v-7.5v-7v0zM841 91q-8 -8 0 -16l7 -7q10 -11 5 -24q-5 -10 -20 -10h-43q-40 0 -44 1q-15 1 -18 10q-3 12 4 22q1 1 3.5 4t3.5 4q7 8 0 16q-20 25 -21 55.5t20 52.5q20 20 48.5 21.5t50.5 -16t27 -45t-11 -51.5
q-3 -5 -12 -17zM788 764q0 8 -6 13.5t-14 5.5h-592q-8 0 -13.5 -5.5t-5.5 -13.5v-736q0 -8 5.5 -13.5t13.5 -5.5h440v-42h-440q-24 0 -40.5 16.5t-16.5 40.5v742q0 24 16.5 40.5t40.5 16.5h593q24 0 41 -16.5t17 -40.5v-493h-39v491zM300 316q-10 0 -17 6.5t-9 16.5
q2 9 9 16t17 7t17.5 -7t8.5 -16q-1 -10 -8.5 -16.5t-17.5 -6.5zM274 343v-4v-4v8zM327 335q0 1 -1 4q1 2 1 4v-8zM385 343v44q0 12 8 19.5t19 7.5t18.5 -7.5t7.5 -19.5v-44q0 -12 -7.5 -19.5t-18.5 -7.5t-19 7.5t-8 19.5zM494 343v121q0 11 7.5 19t18.5 8t19 -8t8 -19v-121
q0 -12 -8 -19.5t-19 -7.5t-18.5 7.5t-7.5 19.5zM245 93v43h265v-43h-265zM245 231h360v-42h-360v42zM514 661q-7 3 -9.5 10t0.5 14q2 6 8 8q1 1 3 2l76 32q6 3 12.5 0t8.5 -10l27 -79q1 0 1 -1q3 -7 0 -15q-3 -6 -9.5 -9t-13.5 0q-1 1 -2 1l-29 14q-25 -40 -50 -71t-73 -69
q-38 -32 -85 -54.5t-75 -29.5l-28 -7v0q-4 -2 -9 -2q-9 0 -15.5 6.5t-6.5 16.5q0 16 16 21v0h1q1 1 3 1q97 20 184 94q25 21 52.5 54.5t42.5 59.5l-28 12zM605 343v224q0 11 8 19t18.5 8t18.5 -8t8 -19v-224q0 -12 -8 -19.5t-18.5 -7.5t-18.5 7.5t-8 19.5zM898 -55h-216v22
h216v-22z" />
    <glyph glyph-name="iconfontshouye" unicode="&#xe608;" horiz-adv-x="1366" 
d="M676 928q28 0 79 -29l329 -190q50 -29 64 -53q14 -25 14 -83v-379q0 -59 -14 -83q-14 -25 -65 -54l-328 -190q-51 -29 -79 -29t-79 29l-328 190q-51 29 -65 53.5t-14 82.5v380q0 59 14 83t65 53l328 190q51 29 79 29zM676 968q-39 0 -99 -34l-328 -190q-60 -35 -79 -68.5
t-19 -102.5v-379q0 -70 19 -103.5t79 -68.5l329 -189q60 -35 98.5 -35t98.5 35l329 189q60 35 79 68.5t19 103.5v379q0 69 -19 102.5t-79 68.5l-329 190q-60 34 -99 34v0v0zM676 968zM675 138q-102 0 -174 71.5t-72 172.5q0 99 70.5 171t169.5 75q5 1 9 -3t4 -9v-223h227
q5 0 9 -4t3 -9q-3 -100 -75 -171t-171 -71v0v0zM657 603q-85 -7 -144 -71t-59 -150q0 -92 64 -155.5t157 -63.5q84 0 148.5 60.5t72.5 145.5h-226q-6 0 -9.5 3.5t-3.5 8.5v222zM657 603zM904 415q-10 0 -12 10q-13 61 -63 111t-111 64q-12 2 -9.5 14t14.5 10
q68 -15 123 -70.5t70 -123.5q3 -12 -9 -14q-1 -1 -3 -1v0zM904 415z" />
    <glyph glyph-name="icongongsijiufen" unicode="&#xe605;" 
d="M480 801v-444q0 -3 2 -3q1 -2 3 -2h444q0 -117 -59 -213t-158 -150t-218 -54q-117 0 -216 56t-157 154t-58 215t54.5 218.5t151 162t211.5 60.5v0zM528 833q118 0 217 -53.5t157.5 -150t58.5 -213.5h-428q-3 0 -3 2q-2 1 -2 3v412v0z" />
    <glyph glyph-name="shenshituishizhengliguquanjiaoyiquanxiankaitong01" unicode="&#xe61d;" horiz-adv-x="1027" 
d="M964 681q0 29 -12 51t-27.5 33t-33 17.5t-28.5 8t-13 1.5h-675v0q-5 0 -12.5 -1t-27 -7.5t-34 -17t-27 -33t-12.5 -52.5v-142q0 -5 1 -8.5t2 -6.5t2.5 -5t3 -3.5t4 -2.5t4 -1.5t3.5 -0.5t3.5 -0.5t3 -0.5h1.5q7 0 14 0.5t14 -0.5q25 -1 31 17q16 46 47 125
q5 13 10.5 19.5t9.5 7t15 0.5v0q1 0 5 0.5t5.5 0.5t6 -1.5t5 -4.5t2 -8.5t-1.5 -14.5q-9 -38 -35.5 -157t-49 -220.5t-21.5 -100.5q-1 -3 -2 -9t-0.5 -20.5t5 -25.5t18 -20t35.5 -9q85 -1 309 0q4 0 39 -1q-11 35 -11 71q0 1 1 14h-191q4 12 4 23q0 40 -28.5 68.5
t-69.5 28.5h-0.5h-0.5l38 194q21 -73 81.5 -119.5t138.5 -46.5q77 0 138 46t82 119l17 -90q16 2 29 2q26 0 52 -6q-44 207 -57 259q-3 8 -2.5 14t1.5 9t4 4.5t5 1.5t6 -0.5t5 -0.5v0q18 1 24 -3.5t14 -24.5q24 -59 46 -124q5 -17 29 -17h28h3.5h6t6.5 1.5t6 4.5t4 8.5
t2 13.5q0 3 1 47.5t1 95.5zM410 592q-11 -7 -36 -9q-5 -1 -7 -1q19 -13 31 -32q5 -9 -1 -12q-5 -2 -13 7q-10 13 -19 36v0q-7 -20 -19 -37q-7 -8 -13 -6q-4 3 2 14q5 11 28 31q-30 2 -42 10q-7 5 -6 10q2 6 11 5q12 -5 39 -24q-6 22 -6 42q0 16 6 17q7 -1 7 -17
q-1 -19 -6 -42q26 17 38 22q9 3 12 -3q2 -6 -6 -11zM518 510q-23 0 -38 12t-15 36h16q0 -16 11 -24.5t27 -8.5q32 0 32 25q0 12 -13 18t-28 8t-28 10.5t-13 25.5q0 19 13.5 29t32.5 10q21 0 34 -10.5t14 -31.5h-17q-2 27 -31 27t-29 -23q0 -11 13 -16.5t28 -7.5t28 -11.5
t13 -27.5q0 -19 -15 -29.5t-35 -10.5zM681 633h-43v-120h-17v120h-42v15h102v-15zM779.5 342q-75.5 0 -129 -53.5t-53.5 -129.5t53.5 -129.5t129 -53.5t129 53.5t53.5 129.5t-53.5 129.5t-129 53.5zM869 185l-14 -15q-5 3 -17 12q-16 13 -27 21l13 13q15 -9 42 -29
q-1 1 1 -1q1 0 2 -1zM740 248h128v-38h-20v19h-87v-19h-21v38v0zM783 216l13 -12q-12 -12 -38 -31q-5 -3 -7 -4q-3 5 -13 15q20 12 45 32zM702 257q10 -9 29 -27l1 -1l1 -1l-17 -14q-20 21 -30 30zM696 203q21 -18 32 -29l-17 -14q-5 4 -15.5 14.5t-14.5 15.5zM703 62l-21 8
q8 23 23 75q3 -1 10 -4q7 -2 9 -4q-13 -44 -21 -75zM875 88q-7 -7 -10 -12q-35 21 -51 48v-63h-21v63q-19 -29 -56 -50q-2 4 -8 11q-2 4 -4 6q41 22 60 50h-49v20h57v23h21v-23h58v-20h-51q20 -30 57 -48q-1 -1 -3 -5zM793 679v0v0v0z" />
    <glyph glyph-name="dingdan" unicode="&#xe658;" 
d="M311 295q0 -5 4 -9t9 -4h382q5 0 8.5 4t3.5 9t-3.5 9t-8.5 4h-382q-5 0 -9 -4t-4 -9zM706 231h-382q-5 0 -9 -3.5t-4 -9t4 -9t9 -3.5h382q5 0 8.5 3.5t3.5 9t-3.5 9t-8.5 3.5zM235 308h-51q-11 0 -18.5 -7.5t-7.5 -18.5v-51q0 -10 7.5 -17.5t18.5 -7.5h51q10 0 17.5 7.5
t7.5 17.5v51q0 11 -7.5 18.5t-17.5 7.5zM324 460h203q6 0 9.5 4t3.5 9t-3.5 9t-9.5 4h-203q-5 0 -9 -4t-4 -9t4 -9t9 -4zM324 384h203q6 0 9.5 3.5t3.5 9t-3.5 9t-9.5 3.5h-203q-5 0 -9 -3.5t-4 -9t4 -9t9 -3.5zM235 486h-51q-11 0 -18.5 -7.5t-7.5 -18.5v-51
q0 -10 7.5 -17.5t18.5 -7.5h51q10 0 17.5 7.5t7.5 17.5v51q0 11 -7.5 18.5t-17.5 7.5zM527 129h-203q-5 0 -9 -3.5t-4 -9t4 -9t9 -3.5h203q6 0 9.5 3.5t3.5 9t-3.5 9t-9.5 3.5zM527 53h-203q-5 0 -9 -3.5t-4 -9t4 -9t9 -3.5h203q6 0 9.5 3.5t3.5 9t-3.5 9t-9.5 3.5zM235 129
h-51q-11 0 -18.5 -7t-7.5 -18v-51q0 -10 7.5 -17.5t18.5 -7.5h51q10 0 17.5 7.5t7.5 17.5v51q0 11 -7.5 18t-17.5 7zM324 639h203q6 0 9.5 3.5t3.5 9t-3.5 9t-9.5 3.5h-203q-5 0 -9 -3.5t-4 -9t4 -9t9 -3.5zM324 562h203q6 0 9.5 4t3.5 9t-3.5 9t-9.5 4h-203q-5 0 -9 -4
t-4 -9t4 -9t9 -4zM235 664h-51q-11 0 -18.5 -7.5t-7.5 -17.5v-51q0 -11 7.5 -18.5t18.5 -7.5h51q10 0 17.5 7.5t7.5 18.5v51q0 10 -7.5 17.5t-17.5 7.5zM820 735v56q0 11 -7.5 18.5t-17.5 7.5h-229v25q0 11 -7.5 18.5t-18.5 7.5h-25q0 10 -7.5 17.5t-18.5 7.5h-102
q-10 0 -17.5 -7.5t-7.5 -17.5h-25q-11 0 -18.5 -7.5t-7.5 -18.5v-25h-229q-11 0 -18 -7.5t-7 -18.5v-891q0 -10 7 -17.5t18 -7.5h509h204q10 0 17.5 7.5t7.5 17.5v204v260q64 15 105.5 66.5t41.5 119t-41.5 119t-105.5 66.5zM777 359v-255h-135q-21 0 -36 -15t-15 -36v-127
h-458q-11 0 -18.5 7.5t-7.5 17.5v789q0 11 7.5 18.5t18.5 7.5h178q0 -11 7.5 -18.5t18.5 -7.5h203q11 0 18.5 7.5t7.5 18.5h185q11 0 18.5 -7.5t7.5 -18.5q-80 0 -135.5 -55.5t-55.5 -135t55.5 -135t135.5 -55.5zM617 -74v127q0 11 7.5 18.5t17.5 7.5h117l16 -1zM464 868
q10 0 17.5 -7.5t7.5 -18.5h-102q0 11 7.5 18.5t18.5 7.5h51zM820 507l-43 -72l-18 -29l-103 105l37 36l56 -58l28 44l43 72l37 60l43 -27z" />
    <glyph glyph-name="shouquan" unicode="&#xe62a;" 
d="M633 713q1 20 -7 33q-22 38 -115 38q-91 1 -113 -35q-8 -14 -6 -36h241zM842 713h-160q2 33 -13 58q-36 62 -157 63q-120 1 -157 -60q-15 -26 -13 -61h-160q-50 0 -85 -35t-35 -84v-541q0 -49 35 -84t85 -35h660q50 0 85 35t35 84v541q0 49 -35 84t-85 35zM398 749
q22 36 113 35q93 0 115 -38q8 -13 7 -33h-241q-2 22 6 36zM667 221q-37 0 -66.5 21t-42.5 54h-104l-47 34l-55 -38l-42 24l-52 -16l-49 46l17 41h335q14 30 42.5 48.5t63.5 18.5q48 0 82.5 -34t34.5 -82.5t-34.5 -82.5t-82.5 -34zM561 364h-320q-8 0 -8 -8q0 -3 2.5 -5.5
t5.5 -2.5h320q8 0 8 8t-8 8zM714.5 365q-11.5 0 -19.5 -8t-8 -19.5t8 -19.5t19.5 -8t19.5 8t8 19.5t-8 19.5t-19.5 8z" />
    <glyph glyph-name="liangyoufushi" unicode="&#xe626;" 
d="M941 3q-1 21 -21 46.5t-39 39.5l-20 15l-1 4q18 59 24.5 111.5t2.5 85.5t-10.5 58t-12.5 35l-7 11l47 15q7 2 11.5 7.5t5.5 9.5l1 4v143q-2 13 -9 19t-13 6h-7l-91 -23q-54 73 -103 125t-80.5 74.5t-55.5 34.5t-35 12h-10q-33 2 -75.5 -22t-79 -61t-68 -74t-51 -63
t-18.5 -26l-90 21q-12 2 -19.5 -3t-9.5 -10l-2 -6v-139q0 -9 3.5 -16t6.5 -9l3 -2q7 -3 19.5 -7.5t22 -8l9.5 -3.5q-19 -30 -26 -72t-4 -81t9 -73t12 -55t7 -20q-18 -12 -37 -32.5t-29.5 -34t-10.5 -14.5q-6 -17 -3 -28t5.5 -16.5t9.5 -8.5t9 -3h4q17 5 38 6.5t34 0l13 -1.5
q34 -11 118 -23t169 -19q50 -4 137 7t150 23t62 13q17 3 32 2t25 -3.5l10 -2.5q36 -5 38 32zM509 794q1 0 3 0.5t9 -0.5t15 -3.5t21.5 -9.5t27.5 -16.5t34 -26.5t41 -38.5t47 -53.5t54 -70q-10 -2 -28.5 -4.5t-74 -7.5t-111.5 -6.5t-133.5 2.5t-147.5 16q7 14 58 75
q118 139 185 143zM765 2q-12 -4 -58 -10.5t-86.5 -12l-40.5 -5.5q-43 -6 -127 2t-148.5 18.5t-62.5 11.5q-20 6 -45 8.5t-40 2.5l-15 -1q8 15 61 55v0q7 6 10 12.5t3 10.5l-1 3q-4 5 -11 29.5t-12 45.5t-5 22q-11 68 -5 113t19 67l13 21q25 -9 87 -15t100 -7.5t49 -1.5
q23 -1 83 1.5t109 5.5l48 4q12 2 17 10t4 14l-2 7q-2 7 -8 11t-11 4l-4 1q-305 -37 -502 22l-37 13v96q284 -71 638 -19q95 13 95 16v-93l-71 -19q-14 -3 -21.5 -6t-8.5 -4l-1 -1q-8 -10 -7.5 -18.5t4.5 -12.5l5 -5q5 -5 13.5 -5.5t14.5 0.5l6 2q5 -4 12 -19.5t12 -29.5
l5 -13q8 -50 2 -100t-18 -88l-12 -37q-3 -12 -1.5 -20t5.5 -11l3 -4q20 -13 35.5 -27.5t20.5 -22.5l6 -7q-16 5 -42.5 1t-51.5 -9.5z" />
    <glyph glyph-name="shouquan1" unicode="&#xe672;" 
d="M174 595l1 2q5 7 3 16t-10 14q-5 4 -12 4q-12 0 -19 -11v-1v0v0q-5 -8 -3 -17t10 -14q5 -3 11 -3q13 0 19 10zM286 57l-1 1q-6 4 -13 4q-12 0 -18 -10q-5 -7 -3.5 -16t8.5 -15h0.5h0.5v0h0.5t0.5 -1q5 -4 12 -4q12 0 18 10q6 8 4.5 17t-9.5 14v0zM139 247q-5 15 -21 15
q-4 0 -8 -2q-8 -3 -12 -11.5t-1 -16.5v-1q1 0 1 -1q5 -14 21 -14q4 0 7 1q9 3 13 11.5t0 17.5v1zM197 141q-6 9 -17 9q-8 0 -14 -5q-7 -5 -8 -14t4 -17h0.5t0.5 -0.5v-0.5v0q7 -9 18 -9q7 0 13 5q8 6 9 15t-5 16zM254 688q7 6 7.5 15.5t-5.5 16.5t-17 7q-8 0 -14 -5l-1 -1
q-7 -6 -8 -15t5 -16q7 -8 17 -8q8 0 15 5zM100 468h5q18 0 22 16v2q2 9 -2.5 17t-13.5 10q-3 1 -5 1q-17 0 -22 -17v0v0v-1v-0.5v-0.5q-2 -9 2.5 -16.5t13.5 -10.5v0zM394 4h-1q-3 1 -7 1q-16 0 -21 -15q-3 -9 1.5 -17t12.5 -11q1 0 1.5 -0.5l0.5 -0.5q4 -1 7 -1q16 0 21 16
q3 9 -1.5 17t-13.5 11zM706 735h1q5 -3 11 -3q13 0 20 11q4 8 1.5 17t-10.5 13l-1 1v0q-5 3 -11 3q-13 0 -20 -11q-4 -8 -1.5 -17t10.5 -14zM909 448v-1q1 -9 7.5 -14t14.5 -5h3q9 1 14.5 8.5t4.5 16.5l-0.5 0.5t-0.5 1.5v0q-1 8 -7 13.5t-14 5.5q-2 0 -4 -1
q-9 -1 -14.5 -8.5t-3.5 -16.5zM346 750q5 0 9 2h1q9 4 12.5 12.5t-0.5 17.5q-6 13 -20 13q-5 0 -9 -2h-0.5t-1.5 -1q-8 -3 -11.5 -11.5t0.5 -17.5q6 -13 20 -13zM593 777h1q2 -1 5 -1q7 0 13.5 5t7.5 13q2 9 -3 16.5t-14 9.5h-1h-0.5h-0.5q-2 1 -4 1q-18 0 -22 -18
q-1 -9 4 -16.5t14 -9.5zM115 364v1q-1 9 -7 15.5t-15 6.5h-0.5h-0.5q-10 -1 -16 -7.5t-5 -16.5v-0.5v-0.5q0 -9 6.5 -15t15.5 -6h1q9 0 15 7t6 16v0zM837 113q-7 6 -15 6q-10 0 -16 -7l-2 -1q-6 -7 -5.5 -16t6.5 -16q7 -6 16 -6t16 7v0.5t0.5 0.5t0.5 1q6 6 6 15.5t-7 15.5z
M872 562q7 -13 20 -13q6 0 10 3q8 4 11 12.5t-1 16.5v0q0 1 -1 2q-6 12 -19 12q-5 0 -10 -2q-8 -4 -11 -13t1 -17v-1zM721 40q-5 0 -11 -3l-1 -1q-8 -4 -10.5 -13t2.5 -17q6 -11 19 -11q6 0 11 3h0.5h0.5q8 5 10.5 14t-1.5 17q-7 11 -20 11zM935 346h-4q-8 0 -14 -5.5
t-8 -13.5v-1q-1 -10 4.5 -17t14.5 -9h3q8 0 14.5 5.5t7.5 13.5v0v1v0v0.5v0.5q2 9 -3.5 16t-14.5 9zM904 222q-5 2 -10 2q-14 0 -20 -13l-1 -1q-4 -8 -1 -16.5t12 -13.5q4 -2 9 -2q14 0 20 13l1 1v0v0q4 9 1 17.5t-11 12.5zM803 661q7 -7 16 -7t16 6q6 6 6.5 15.5t-6.5 15.5
l-0.5 0.5t-0.5 1.5q-6 6 -16 6q-9 0 -15.5 -6t-6.5 -15.5t6 -15.5zM472 782l1 1q10 0 15.5 7.5t4.5 16.5q-1 8 -7 14t-15 6h-2h-2q-9 -1 -14.5 -8.5t-4.5 -16.5q0 -8 6.5 -14t15.5 -6h2zM514 -14h-2q-9 0 -15.5 -6.5t-6.5 -16t6.5 -16t15.5 -6.5h1v0h1v0q9 0 15.5 6.5
t6.5 16t-6.5 16t-15.5 6.5v0zM602 -5q-2 0 -4 -1h-2q-9 -2 -14 -9.5t-3 -16.5q4 -18 22 -18h4q0 1 1 1v0h1v0q9 2 14 9.5t3 16.5q-4 18 -22 18v0zM712 240q-34 9 -77 23q18 11 30 20q16 12 28 28q12 18 12 36q0 36 -54 36h-194v-41h176q22 0 24 -1t2 -3.5t-4 -7.5
q-12 -15 -28 -27q-13 -9 -38 -21q-33 16 -63 38h-52q23 -24 37 -35q10 -8 31 -21q-64 -20 -82 -24v-42q64 17 129 42q37 -16 59.5 -23.5t63.5 -18.5v42zM495 408q0 8 4 11q3 4 15 4h141q17 0 17 -15v-10h40v29q0 15 -15 29v48h-40v-41h-54v41h-40v-41h-54v41h-40v-49
q-9 -9 -11.5 -14.5t-2.5 -14.5v-28h40v10zM408 488h37v42h-37v40h-40v-40h-56v-42h56v-98q-29 -17 -56 -20v-42q19 2 27 5q8 2 29 11v-77q0 -11 -8 -19q-6 -5 -22 -5h-15v-41h13q35 0 50 10q22 15 22 50v108q17 10 39 19v40q-18 -4 -39 -14v73zM455 519h204q25 0 40 17
q10 11 13 34h-40q-1 -7 -4 -9t-23 -2h-190v-40z" />
    <glyph glyph-name="liangshidiaokong" unicode="&#xe656;" 
d="M514 -71q-10 0 -17 7t-7 17v176h-2q-23 2 -46 9l-3 1v-120q0 -10 -7 -17t-17 -7t-17 7t-7 17v132q0 3 1 5v2l-2 1q-60 34 -95.5 94t-35.5 129q0 10 7 17t17 7q21 0 42 -4l8 -1l-6 6q-68 73 -68 173q0 10 7 17t17 7q84 0 152 -51l8 -5l-3 8q-17 45 -17 92q0 106 74 180
q7 7 17 7t17 -7q53 -53 68.5 -127t-11.5 -145l-3 -9l7 6q68 51 153 51q10 0 17 -7t7 -17q0 -100 -69 -173l-5 -6l8 1q21 4 42 4q10 0 17 -7t7 -17q0 -69 -35.5 -129t-96.5 -94l-1 -1v-2q1 -2 1 -5v-132q0 -10 -7 -17t-17 -7t-17 7t-7 17v120l-3 -1q-23 -7 -46 -9h-2v-176
q0 -10 -7 -17t-17 -7zM716 357q-68 -10 -117.5 -59.5t-58.5 -117.5l-1 -4l4 1q68 9 117.5 58.5t58.5 118.5l1 3h-4zM308 354q10 -69 59.5 -118.5t117.5 -58.5l4 -1l-1 4q-9 68 -58.5 117.5t-118.5 59.5h-3v-3zM469 325q26 -28 42 -62l3 -4l2 4q17 34 43 62l5 6l-8 -2
q-21 -3 -42 -3v0q-21 0 -42 3l-8 2zM308 552q10 -69 59.5 -118t117.5 -59l4 -1l-1 4q-9 69 -58.5 118t-118.5 59h-3v-3zM716 555q-68 -10 -117.5 -59t-58.5 -118l-1 -4l4 1q68 10 117.5 59t58.5 118l1 3h-4zM512 773q-42 -55 -42 -125t42 -125l2 -3l2 3q42 55 42 125
t-42 125l-2 3z" />
    <glyph glyph-name="shengjiliangshiliuxiang" unicode="&#xe690;" 
d="M478 15q-101 0 -187.5 50.5t-136.5 137t-50 189t50 189t136.5 137t187.5 50.5q144 0 250.5 -96.5t121.5 -238.5h63q-10 110 -70 201t-156.5 143.5t-208.5 52.5q-89 0 -169.5 -34.5t-139 -93.5t-93 -140t-34.5 -170.5t34.5 -171t93 -140t139 -93.5t169.5 -35
q95 0 178.5 38t145.5 106l-44 45q-52 -59 -125 -92.5t-155 -33.5v0v0zM749 433h270l-135 -230l-135 230v0v0zM749 433zM642 621zM550 618h37v-130h-37v130v0v0zM550 618zM484 410q-28 65 -108 64q-8 -60 17 -89t91 -29q65 0 90 29t17 89q-79 1 -107 -64v0v0zM484 410z
M493 645h37v-157h-37v157v0v0zM493 645zM484 292q-28 65 -108 64q-8 -60 17 -89t91 -29q65 0 90 29t17 89q-79 1 -107 -64v0v0zM484 292zM484 179q-28 65 -108 63q-8 -60 17 -89t91 -28q65 -1 90 28t17 89q-79 2 -107 -63v0v0zM484 179zM436 645h37v-157h-37v157v0v0z
M436 645zM379 618h37v-130h-37v130v0v0zM379 618z" />
    <glyph glyph-name="wxbbaobiao" unicode="&#xe659;" 
d="M942 0h-816v816q0 9 -6.5 15t-15.5 6t-15.5 -6t-6.5 -15v-838q0 -9 6.5 -15.5t15.5 -6.5h838q9 0 15 6.5t6 15.5t-6 15.5t-15 6.5zM205 191q10 0 17 8l165 209l205 -205q8 -7 17 -6q10 0 16 8l258 345q6 7 4.5 16t-8.5 14.5t-16 4t-15 -8.5l-243 -325l-204 205
q-7 7 -17 6q-9 -1 -15 -8l-181 -228q-6 -7 -5 -16t8 -14t14 -5v0z" />
    <glyph glyph-name="wxbpinpaibao" unicode="&#xe65b;" 
d="M920 405q-4 12 -16 13l-248 36l-111 223q-6 11 -18.5 11t-18.5 -11l-111 -223l-248 -36q-13 -1 -17 -13t6 -21l179 -173l-42 -245q-2 -12 8 -19.5t21 -1.5l222 116l223 -116q4 -2 9 -2q6 0 12 4q10 7 8 19l-42 245l179 173q9 9 5 21v0zM698 232q-7 -7 -5 -17l38 -215
l-195 103q-10 5 -19 0l-195 -103l39 215q2 10 -6 17l-160 152l220 31q10 1 15 11l96 196l97 -196q5 -10 15 -11l219 -31l-159 -152v0zM200 475q8 0 14.5 6.5t6.5 15.5v296h610v-296q0 -9 6 -15.5t15 -6.5t15.5 6.5t6.5 15.5v318q0 9 -6.5 15t-15.5 6h-652q-9 0 -15.5 -6
t-6.5 -15v-318q0 -9 6.5 -15.5t15.5 -6.5v0z" />
    <glyph glyph-name="che1" unicode="&#xe64a;" 
d="M512 844q-93 0 -177.5 -36t-146 -97.5t-97.5 -146t-36 -177.5t36 -178t97.5 -146t146 -97t177.5 -36t178 36t146 97t97 146t36 178t-36 177.5t-97 146t-146 97.5t-178 36zM512.5 -16q-109.5 0 -202.5 54t-146.5 146.5t-53.5 202t53.5 202.5t146.5 146.5t202.5 53.5
t202 -53.5t146.5 -146.5t54 -202.5t-54 -202t-146.5 -146.5t-202 -54zM236 134q-4 0 -11 6l-6 7v97h94v-47q-1 -46 -2 -49q-2 -8 -10 -12q-4 -3 -32.5 -3t-32.5 1v0v0zM727 134q-8 2 -11.5 8.5t-4.5 57.5l-1 44h95v-97l-6 -7l-7 -7h-31q-31 0 -34 1v0v0zM229 261
q-21 1 -26.5 2.5t-12.5 9.5q-9 9 -11 21q0 7 -0.5 57t0.5 58q2 10 15 31q9 13 15 26q11 20 48 105q20 46 28 56.5t24 11.5q11 2 203.5 2t202.5 -2q14 -1 22 -9q8 -9 42 -85q37 -83 49 -101q11 -17 13.5 -23t3.5 -18t1 -56t-1 -52q-2 -15 -11 -24q-8 -7 -14 -8t-43 -2h-280.5
h-267.5v0zM278 333q18 4 27 19q12 18 7 39q-6 21 -24 30q-30 15 -54 -7q-18 -16 -15.5 -40t22.5 -36q16 -10 37 -5v0zM769 333q13 2 23 12q12 12 14 26q2 19 -8 34q-14 21 -40 21q-30 0 -43 -28q-4 -9 -3.5 -21.5t5.5 -20.5q4 -8 12.5 -15t15.5 -8q10 -3 24 0v0v0zM673 467
q95 1 96 2t-26.5 63.5t-30 64.5t-8.5 3t-181 1.5t-192 -0.5l-15 -1l-3 -3q-6 -7 -48 -104q-10 -23 -9 -24q4 -5 417 -2v0v0zM673 467z" />
    <glyph glyph-name="zhifubao" unicode="&#xe65e;" 
d="M512 -66q122 0 225.5 60.5t164 164t60.5 225.5t-60.5 225.5t-164 164t-225.5 60.5t-225.5 -60.5t-164 -164t-60.5 -225.5t60.5 -225.5t164 -164t225.5 -60.5v0zM467 550v73h82v-73h166v-34h-166v-45h137q-2 -25 -19 -73q-8 -21 -16.5 -38.5t-12.5 -24.5l-5 -7l267 -87
q-8 -26 -20 -48q-5 -10 -12 -21.5t-11 -17.5l-5 -6l-256 121q-48 -54 -98 -76q-93 -44 -166 -23q-49 11 -75.5 42.5t-22.5 84.5q5 50 49 74t100 24q28 0 74 -10.5t77 -20.5l31 -11q12 23 20 48q5 11 8 23t3 18v7h-253v25h124v48h-155v34h155v-6zM537 297q-3 -4 -8.5 -10
t-23.5 -21.5t-36.5 -27.5t-45 -21.5t-52.5 -9.5q-60 0 -84.5 22t-24.5 51q0 27 21.5 46.5t73.5 23.5q34 3 79 -10.5t73 -28.5l28 -14v0zM537 297z" />
    <glyph glyph-name="gouwuche" unicode="&#xe660;" 
d="M246 -16q0 28 20 47.5t47.5 19.5t47.5 -19.5t20 -47.5t-20 -47.5t-47.5 -19.5t-47.5 19.5t-20 47.5zM717 -16q0 28 19.5 47.5t47.5 19.5t47.5 -19.5t19.5 -47.5t-19.5 -47.5t-47.5 -19.5t-47.5 19.5t-19.5 47.5zM906 131h-538q-21 0 -40 16.5t-24 38.5l-96 566
q-7 41 -40.5 68.5t-74.5 27.5h-23q-9 0 -17 -8t-8 -17.5t8 -17.5t17 -8h23q21 0 40 -16.5t24 -38.5l96 -566q7 -41 40.5 -68.5t74.5 -27.5h538q9 0 17 8t8 18t-7 17.5t-18 7.5zM880 717h-573q-9 0 -17 -8t-8 -17.5t8 -17.5t17 -8h573q19 0 28 -11.5t4 -30.5l-70 -282
q-5 -23 -27 -40.5t-47 -19.5l-397 -29q-10 0 -17.5 -8.5t-4.5 -20.5q0 -10 8.5 -17.5t20.5 -4.5l396 28q41 3 75 32t44 68l70 281q10 41 -15 73.5t-68 32.5z" />
    <glyph glyph-name="gouwuchetianjia" unicode="&#xe662;" 
d="M803 0zM739 0q0 26 19 45t45.5 19t45 -19t18.5 -45t-18.5 -45t-45 -19t-45.5 19t-19 45zM346 0zM282 0q0 26 18.5 45t45 19t45.5 -19t19 -45t-19 -45t-45.5 -19t-45 19t-18.5 45zM774 778q-81 0 -139.5 -58.5t-58.5 -140t58.5 -140t140 -58.5t140 58.5t58.5 139.5
q2 82 -56.5 140.5t-142.5 58.5zM774 432q-62 0 -106 43.5t-44 103.5q0 62 44 104.5t106 42.5q63 0 107 -43.5t44 -103.5q0 -62 -44 -104.5t-107 -42.5zM368 246q0 -9 8 -15.5t18 -6.5l492 42q10 0 16.5 7.5t6.5 17.5t-8 16.5t-18 6.5l-493 -42q-10 0 -17 -7t-5 -19zM845 605
h-48v48q0 10 -7 17.5t-19 7.5q-25 0 -25 -25v-48h-48q-11 0 -18.5 -7t-7.5 -19q0 -10 7 -17.5t19 -7.5h48v-48q0 -11 7 -18.5t18 -7.5q26 0 26 26v48h48q10 0 17.5 7t7.5 18q-2 11 -9 18.5t-16 7.5zM330 704h188q11 0 18.5 7t7.5 19q0 10 -7 17.5t-19 7.5h-188
q-11 0 -18.5 -7t-7.5 -18.5t7.5 -18.5t18.5 -7zM886 154h-524q-21 0 -40 15.5t-24 35.5l-93 547q-7 39 -39.5 66t-72.5 27h-23q-10 0 -17.5 -7t-7.5 -19q0 -10 7 -17.5t18 -7.5h23q22 0 40.5 -15t23.5 -37l93 -547q7 -39 39 -66t73 -27h524q11 0 18.5 7.5t7.5 18.5
q0 10 -8 18t-18 8z" />
    <glyph glyph-name="erweima" unicode="&#xe663;" 
d="M384 832h-250q-37 0 -63 -26.5t-26 -63.5v-227q0 -38 26.5 -63.5t62.5 -25.5h250q38 0 64 26.5t26 62.5v227q0 37 -26 63.5t-64 26.5zM429 515q0 -19 -13 -32t-32 -13h-250q-19 0 -31.5 13t-12.5 32v227q0 20 12.5 32.5t31.5 12.5h250q19 0 32 -12.5t13 -32.5v-227z
M192 704h134v-134h-134v134zM378 352h-244q-36 0 -61 -25.5t-25 -64.5v-220q0 -37 25.5 -63.5t60.5 -26.5h244q36 0 61 25.5t25 64.5v220q2 38 -24 64t-62 26zM422 45q0 -19 -12.5 -32t-31.5 -13h-244q-19 0 -31.5 13t-12.5 32v221q0 19 12.5 31.5t31.5 12.5h244
q19 0 31.5 -12.5t12.5 -31.5v-221zM192 227h131v-131h-131v131zM634 426h249q38 0 64 26.5t26 62.5v227q0 38 -26.5 64t-63.5 26h-249q-38 0 -64 -26.5t-26 -63.5v-227q0 -38 26.5 -63.5t63.5 -25.5zM589 742q0 20 12.5 32.5t32.5 12.5h249q19 0 32 -12.5t13 -32.5v-227
q0 -19 -13 -32t-32 -13h-249q-20 0 -32.5 13t-12.5 32v227zM701 704h134v-134h-134v134zM573 179h137q10 0 16.5 6.5t6.5 16.5v137q0 10 -6.5 16.5t-16.5 6.5h-137q-10 0 -16.5 -6.5t-6.5 -16.5v-137q0 -10 6.5 -16.5t16.5 -6.5zM886 333v-39q0 -9 8 -17t18 -8h38q10 0 18 8
t8 17v39q0 9 -8 17t-18 8h-38q-10 0 -18 -7t-8 -18zM582 -48h48q10 0 16.5 6.5t6.5 15.5v48q0 10 -6.5 16.5t-16.5 6.5h-48q-9 0 -15.5 -6.5t-6.5 -16.5v-48q0 -9 6.5 -15.5t15.5 -6.5zM944 192h-99q-12 0 -20.5 -8.5t-8.5 -20.5v-45h-48q-14 0 -23 -8.5t-9 -23.5v-99
q0 -12 8.5 -20.5t20.5 -8.5l179 -3q12 0 20.5 8.5t8.5 20.5v179q0 12 -8.5 20.5t-20.5 8.5z" />
    <glyph glyph-name="tishi" unicode="&#xe664;" 
d="M509 851q-94 0 -180 -36.5t-148.5 -99t-99 -148.5t-36.5 -180t36.5 -180t99 -148t148.5 -99t180 -37t180 37t148 99t99 148t37 180t-37 180t-99 148.5t-148 99t-180 36.5zM508.5 -29q-113.5 0 -209 55.5t-151 151.5t-55.5 209.5t55.5 209t151 151t209 55.5t209.5 -55.5
t151.5 -151t55.5 -209t-55.5 -209.5t-151.5 -151.5t-209.5 -55.5zM521.5 243q9.5 0 16 6.5t6.5 16.5v428q0 10 -6.5 16.5t-16 6.5t-16 -6.5t-6.5 -16.5v-428q-2 -8 5.5 -15.5t17 -7.5zM522 147zM486 147.5q0 14.5 10.5 24.5t25 10t25 -10t10.5 -24.5t-10.5 -25t-25 -10.5
t-25 10.5t-10.5 25z" />
    <glyph glyph-name="wancheng" unicode="&#xe665;" 
d="M486 266q-14 -15 -33.5 -15.5t-33.5 11.5l-137 132l-32 -36l137 -131q29 -26 67.5 -25.5t67.5 28.5l281 298l-35 32zM512 845q-93 0 -178.5 -36.5t-147 -98t-98.5 -147t-37 -179.5t36.5 -179.5t98 -147t147 -98t179.5 -36.5t179.5 36.5t147 98t98 147t36.5 179.5
t-37 179.5t-98.5 147t-147 98t-178.5 36.5zM512 -29q-112 0 -207 55.5t-150.5 150.5t-55.5 207t55.5 207t150.5 150.5t207 55.5t207 -55.5t150.5 -150.5t55.5 -207t-55.5 -207t-150.5 -150.5t-207 -55.5z" />
    <glyph glyph-name="wodehongbao" unicode="&#xe666;" 
d="M866 794v0v0q-31 40 -78 40h-574q-42 0 -70.5 -28.5t-28.5 -70.5v-699q0 -41 28.5 -70t70.5 -29h574q42 0 70.5 29t28.5 70v699q0 37 -21 59zM788 784q9 0 13 -3l-292 -186l-314 186q7 3 19 3h574zM838 33q0 -21 -14.5 -35t-35.5 -14h-574q-21 0 -35.5 14t-14.5 35v699v6
l332 -196q11 -7 25 0l317 202q0 -2 1.5 -6.5t1.5 -5.5v-699h-3zM639 334q10 0 17.5 8t7.5 17t-7.5 17t-17.5 8h-84l72 71q7 7 7 17.5t-7 17t-17 6.5t-17 -6l-81 -81h-3v0l-78 77q-7 7 -17 7t-17 -7t-7 -17t7 -17l68 -68h-74q-9 0 -17 -8t-8 -17t8 -17t17 -8h93v-74h-93
q-9 0 -17 -8t-8 -17t8 -17t17 -8h93v-90q0 -9 8 -17t17 -8t17 8t8 17v90h108q10 0 17.5 8t7.5 17t-7.5 17t-17.5 8h-108v74h105z" />
    <glyph glyph-name="wodeyouhuiquan" unicode="&#xe67c;" 
d="M877 730h-727q-43 0 -72.5 -30t-29.5 -73v-118v0v-48h26q20 0 35.5 -15.5t15.5 -39.5q0 -22 -15 -38t-36 -16h-26v-45v0v-6v-119q0 -43 29.5 -72.5t72.5 -29.5h727q43 0 72.5 29.5t29.5 72.5v119v6v45h-22q-20 0 -35.5 15.5t-15.5 38.5q0 22 14.5 38.5t36.5 16.5h1h1h1h1
h2h1h2h1h2h2h8v51v3v115q-2 41 -32 70.5t-70 29.5zM851 410q0 -36 21 -63t53 -37v-121q0 -22 -15 -36.5t-36 -14.5h-727q-21 0 -36 14.5t-15 36.5v118v0q36 5 56.5 34.5t20.5 68.5q0 36 -22 65.5t-55 36.5v115q0 22 15 36.5t36 14.5h727q21 0 36 -14.5t15 -36.5v-118
q-32 -7 -53 -35.5t-21 -63.5zM614 406q10 0 18 8t8 18t-8 18t-18 8h-67l58 57q7 7 7 17.5t-7 18t-17.5 7.5t-17.5 -8l-58 -57l-58 57q-7 8 -17.5 8t-17.5 -7.5t-7 -18t7 -17.5l58 -57h-64q-10 0 -18 -8t-8 -18t8 -18t18 -8h80v-51h-80q-10 0 -18 -8t-8 -17.5t8 -17.5t18 -8
h80v-51q0 -10 8 -18t17.5 -8t17.5 8t8 18v51h77q9 0 17 8t8 17.5t-8 17.5t-17 8h-77v51h70z" />
    <glyph glyph-name="xiaoxizhongxin" unicode="&#xe667;" 
d="M586 -10v0q35 45 41 45q156 29 251 138.5t95 258.5q1 112 -60.5 205.5t-168 147t-232.5 53.5t-233 -53.5t-169 -147t-62 -205.5q0 -149 96 -258.5t250 -138.5q5 0 41 -45v0q27 -35 42.5 -49.5t31.5 -14.5q15 0 30.5 14t46.5 50zM621 93q-14 -2 -26 -14.5t-41 -49.5v0
l-42 -45l-10 10q-6 6 -25 32q-32 40 -44.5 52.5t-26.5 14.5q-138 24 -222.5 119.5t-84.5 225.5q0 95 55.5 176t151.5 128.5t209 47.5t209 -47.5t151.5 -128.5t55.5 -176q-2 -132 -86.5 -226.5t-223.5 -118.5zM282 425.5q0 19.5 13 34t31.5 14.5t31.5 -14.5t13 -34t-13 -33.5
t-31.5 -14t-31.5 14t-13 33.5zM467 425.5q0 19.5 13 34t32 14.5t32 -14.5t13 -34t-13 -33.5t-32 -14t-32 14t-13 33.5zM653 425.5q0 19.5 13 34t31.5 14.5t31.5 -14.5t13 -34t-13 -33.5t-31.5 -14t-31.5 14t-13 33.5z" />
    <glyph glyph-name="gushi" unicode="&#xe629;" horiz-adv-x="1122" 
d="M-72 774l-1 18l-1 -19v-8v-20v0l1 -7v0l1 7v0v20v9zM-73 787l1 -13l-1 -14l-1 13zM-72 747l-1 -5v6v15v-8l1 8v-16zM-72 747zM389 537h-100v-274h100v274zM389 607q0 14 -9.5 24t-22.5 10h-35q-14 0 -23.5 -10t-9.5 -24v-35l100 1v34zM322 162h35q13 0 22.5 10t9.5 25v31
h-100v-31q0 -15 9.5 -25t23.5 -10v0zM560 678q0 14 -10 24t-24 10h-70q-14 0 -22.5 -10t-8.5 -24v-36l135 -1v37zM560 607h-135v-343h135v343zM456 162h70q14 0 24 10t10 25v31h-135v-31q0 -15 8.5 -25t22.5 -10v0zM627 161h102q14 0 24 10t10 25v411q0 14 -10 24t-24 10
h-102q-14 0 -24 -10t-10 -24v-411q0 -15 10 -25t24 -10v0zM864 505q0 14 -8.5 24t-22.5 10h-6q-13 0 -21.5 -10.5t-8.5 -25.5v-67h67v69zM864 400l-67 -1v-101l67 2v100zM827 161h6q14 0 22.5 10t8.5 25v68l-67 -2v-68q0 -14 8.5 -23.5t21.5 -9.5v0zM1049 93q3 29 -10 35
l-141 138v-112q-1 -1 0.5 -7.5t-6.5 -14t-25 -7.5h-580q-4 0 -9 1.5t-14 11t-9 24.5v103l-143 -137q-1 0 -3 -0.5t-4.5 -8.5t-1.5 -23q0 -40 10 -40h924q8 0 11 9t2 18l-1 10v0zM1049 93z" />
    <glyph glyph-name="gupiao" unicode="&#xe661;" 
d="M512 833q-91 0 -174.5 -35.5t-143.5 -95.5t-96 -143.5t-36 -175t36 -174.5t96 -143.5t143.5 -96t174.5 -35.5t174.5 35.5t143.5 96t96 143.5t36 174.5t-36 175t-96 143.5t-143.5 95.5t-174.5 35.5zM512 -34q-113 0 -209.5 56t-152 152t-55.5 209.5t55.5 209.5t152 152
t209.5 56t209.5 -56t152 -152t55.5 -209.5t-55.5 -209.5t-152 -152t-209.5 -56zM763.5 575q-21.5 0 -37 -15t-15.5 -37q0 -18 11 -31l-106 -127q-8 3 -16 3q-19 0 -34 -12l-101 71q1 5 1 11q0 21 -15 36.5t-37 15.5t-37 -15.5t-15 -36.5q0 -17 9 -30l-86 -103q-11 4 -22 4
q-21 0 -36.5 -15t-15.5 -36.5t15.5 -37t37 -15.5t36.5 15.5t15 36.5q0 14 -6 26l88 105q8 -3 17 -3q20 0 35 14l100 -70q-2 -7 -2 -13q0 -22 15.5 -37.5t37 -15.5t37 15.5t15.5 37.5q0 17 -10 30l106 127q8 -2 15 -2q22 0 37 15t15 37t-15 37t-36.5 15z" />
    <glyph glyph-name="zhifubao1" unicode="&#xe7da;" 
d="M312 141q-46 0 -78.5 13t-46 32.5t-18.5 38t-2 33.5q6 30 37 54.5t81 24.5q114 0 248 -65q-48 -63 -105 -97t-116 -34zM959 220v440q0 72 -50.5 122t-121.5 50h-551q-71 0 -121.5 -50t-50.5 -122v-550q0 -71 50.5 -121.5t121.5 -50.5h551q63 0 110.5 40.5t58.5 100.5
q-237 103 -346 155q-63 -76 -129.5 -114t-155.5 -38q-91 0 -147.5 49.5t-48.5 119.5q2 21 8.5 40.5t23 41.5t41 37t65.5 22.5t93 2.5q23 -2 45.5 -5.5t35 -5.5t36.5 -9t30 -8.5t36.5 -12t35.5 -11.5q31 57 49 121h-347v35h172v62h-210v37h210v90q2 14 17 14h86v-104h224v-37
h-224v-62h182q-24 -101 -74 -186q24 -9 97.5 -32t135.5 -42l62 -19v0z" />
    <glyph glyph-name="shijian1" unicode="&#xe668;" 
d="M828 700q-63 63 -145 97t-171 34t-171 -34t-145 -97t-97 -145t-34 -171t34 -171t97 -145t145 -97t171 -34t171 34t145 97t97 145t34 171t-34 171t-97 145zM532 -21v74q0 8 -6 14t-14.5 6t-14.5 -6t-6 -14v-74q-103 5 -189 57.5t-138 139t-57 188.5h72q9 0 15 6t6 14.5
t-6 14.5t-15 6h-72q8 155 118.5 265.5t265.5 118.5v-72q0 -9 6 -15t14.5 -6t14.5 6t6 15v72q102 -5 188.5 -57t139 -138t57.5 -189h-74q-8 0 -14 -6t-6 -14.5t6 -14.5t14 -6h74q-5 -102 -57 -189t-139 -139t-189 -57zM532 393v245q0 8 -6 14t-14.5 6t-14.5 -6t-6 -14v-255
q0 -12 11 -18l191 -191q6 -6 14.5 -6t14.5 6t6 14.5t-6 14.5z" />
    <glyph glyph-name="radiobutton" unicode="&#xe6a7;" 
d="M504.5 880q-102.5 0 -196 -40t-161 -107.5t-107 -161t-39.5 -196t39.5 -195.5t107 -160.5t161 -107.5t196 -40t195.5 40t160.5 107.5t107.5 160.5t40 195.5t-40 196t-107.5 161t-160.5 107.5t-195.5 40zM406 156l-175 175l66 66l109 -110l306 306l65 -65z" />
    <glyph glyph-name="pinglun" unicode="&#xe6ad;" 
d="M851 800h-676q-46 0 -78 -32.5t-32 -77.5v-447q0 -45 32 -77.5t78 -32.5h90l132 -168q6 -8 15.5 -8t15.5 8l132 168h291q45 0 77.5 32.5t32.5 77.5v447q0 45 -32.5 77.5t-77.5 32.5zM921 243q0 -29 -20.5 -49.5t-49.5 -20.5h-300q-10 0 -16 -7l-122 -156l-123 156
q-6 7 -15 7h-100q-29 0 -49.5 20.5t-20.5 49.5v447q0 28 20.5 49t49.5 21h676q29 0 49.5 -21t20.5 -49v-447zM273 551q-33 0 -56.5 -23t-23.5 -56.5t23.5 -57t56.5 -23.5t56.5 23.5t23.5 57t-23.5 56.5t-56.5 23zM272.5 431q-16.5 0 -28 12t-11.5 28.5t11.5 28t28 11.5
t28.5 -11.5t12 -28t-12 -28.5t-28.5 -12zM513 551q-33 0 -56.5 -23t-23.5 -56.5t23.5 -57t56.5 -23.5t56.5 23.5t23.5 57t-23.5 56.5t-56.5 23zM512.5 431q-16.5 0 -28 12t-11.5 28.5t11.5 28t28 11.5t28.5 -11.5t12 -28t-12 -28.5t-28.5 -12zM753 551q-33 0 -56.5 -23
t-23.5 -56.5t23.5 -57t56.5 -23.5t56.5 23.5t23.5 57t-23.5 56.5t-56.5 23zM752.5 431q-16.5 0 -28 12t-11.5 28.5t11.5 28t28 11.5t28.5 -11.5t12 -28t-12 -28.5t-28.5 -12z" />
    <glyph glyph-name="bianji" unicode="&#xe6b0;" 
d="M908.5 404q-8.5 0 -14 -6t-5.5 -14v-339q0 -29 -20.5 -49.5t-49.5 -20.5h-616q-29 0 -49.5 20.5t-20.5 49.5v677q0 29 20.5 49.5t49.5 20.5h362q8 0 14 5.5t6 14t-6 14.5t-14 6h-362q-46 0 -78 -32.5t-32 -77.5v-677q0 -45 32 -77.5t78 -32.5h616q45 0 77.5 32.5
t32.5 77.5v339q0 8 -6 14t-14.5 6zM943 778l-36 35q-17 18 -42 18t-43 -18l-422 -422q-2 -2 -3 -4l-128 -227q-7 -14 4 -25q6 -5 14 -5q5 0 10 3l220 135q2 1 3 3l423 422q17 18 17 42.5t-17 42.5zM419 344l55 -55l-132 -82zM914 721l-408 -408l-64 64l409 408q5 6 13.5 6
t14.5 -6l35 -35q6 -6 6 -14.5t-6 -14.5z" />
    <glyph glyph-name="shouqi" unicode="&#xe6ba;" 
d="M773 221q-13 0 -22 9l-238 243l-239 -243q-9 -9 -21.5 -9t-21 8.5t-9 21t8.5 21.5l260 265q9 9 21.5 9t21.5 -9l260 -265q9 -9 9 -21.5t-9 -21t-21 -8.5z" />
    <glyph glyph-name="xiala" unicode="&#xe6bf;" 
d="M512.5 221q-12.5 0 -21.5 9l-260 265q-9 9 -8.5 21.5t9 21t21 8.5t21.5 -9l239 -243l238 243q9 9 21.5 9t21.5 -8.5t9 -21t-9 -21.5l-260 -265q-9 -9 -21.5 -9z" />
    <glyph glyph-name="xiayibu" unicode="&#xe6c0;" 
d="M380 93q-13 0 -21.5 9t-8.5 21.5t9 21.5l244 238l-244 239q-9 9 -9 21.5t8.5 21t21 9t21.5 -8.5l265 -260q9 -9 9 -21.5t-9 -21.5l-265 -260q-9 -9 -21 -9z" />
    <glyph glyph-name="chaping" unicode="&#xe6c2;" 
d="M105 116q-9 0 -14.5 -6t-5.5 -14t6 -14t14 -6v0q25 0 62 -12q72 -25 128 -86q6 -6 15 -6q8 0 13 5q6 6 6.5 14t-4.5 14q-29 31 -62 54t-57.5 33.5t-50.5 16.5t-35 6.5t-15 0.5zM889 114q-3 -1 -11 0.5t-24 -1t-34 -5t-42 -11t-46.5 -19.5t-48.5 -30t-48 -42
q-6 -6 -5.5 -14.5t6.5 -14.5q6 -5 14 -5t14 6q62 66 148 88q43 11 74 8h2q8 0 14 6t6 14t-5.5 14t-13.5 6zM939 358q-30 75 -138 175q71 46 103 122q5 13 -6 23q-91 76 -235 118q-150 45 -274 27q-132 -20 -191 -108q-1 -1 -1 -3q-6 -8 -22 -43q-7 -15 -11 -25l-3 -9l-2 -6
q-10 -40 -5 -82v-4q1 -84 41 -200q34 -101 93 -193q73 -114 180 -206q6 -5 13 -5q9 0 15 7t5 15t-7 14q-102 87 -172 196q-56 87 -89 183q-8 23 -14 47q74 -99 201 -171t237 -87h3q11 0 17 9q27 42 36.5 84.5t-0.5 74.5q56 -2 110.5 3t73.5 9.5t29 8.5q9 2 12.5 10t0.5 16z
M216 683q-5 -1 -10 1q5 -2 10 -1zM195 636q-1 2 -3 4q2 -2 3 -4zM680 354q-13 1 -19.5 -11.5t3.5 -22.5q17 -18 13 -56t-27 -79q-107 18 -221 86q-127 76 -191 172q-62 93 -40 177q0 1 1 2q11 33 31 68q0 1 1 2q49 74 164 91t256 -25q126 -37 210 -101q-33 -66 -103 -103
q-9 -5 -10.5 -15t6.5 -17q31 -28 49.5 -46t46 -51t42.5 -61q-100 -21 -212 -10z" />
    <glyph glyph-name="haoping" unicode="&#xe6c6;" 
d="M150 111q-8 -1 -14 -6.5t-5.5 -14t6 -14t14.5 -5.5v0q8 -1 17 -1.5t40.5 -6t58 -15t61.5 -30t60 -49.5q6 -7 15 -7q8 0 13 6q6 5 6.5 13.5t-4.5 14.5q-29 32 -67 55.5t-69 34.5t-64.5 17t-46.5 7t-21 1zM877 111q-8 0 -20.5 -1t-45.5 -7t-64 -16.5t-69.5 -34.5t-68.5 -56
q-5 -6 -5 -14t7 -14q5 -5 13 -5q9 0 15 6q26 28 60.5 49t62 30.5t57 15t40.5 6.5t18 1v0q8 0 14 5.5t6 14t-6 14.5t-14 6zM832 308q52 88 63 194q10 104 -23 184q-5 12 -18 12q-107 2 -195 -41q-25 42 -66 96q-27 35 -45.5 53.5t-24 21t-12 2.5t-12 -2t-23.5 -20.5
t-46 -53.5q-41 -54 -65 -95q-87 41 -191 39q-13 0 -18 -12q-34 -80 -23 -184q11 -106 62 -194q45 -75 112 -120.5t148 -55.5q2 -1 5 -2q14 -1 33 -1v-175q0 -9 6 -14.5t14.5 -5.5t14 5.5t5.5 14.5v175q19 0 35 1q2 1 5 2q81 10 148 55.5t111 120.5zM703 223
q-62 -44 -139 -52q-2 0 -4 -1q-25 -2 -47 -2t-46 2q-1 1 -3 1q-77 8 -139 52q-57 40 -95 106q-45 75 -56.5 166.5t14.5 162.5q97 -1 175 -44q8 -4 16 -1.5t12 10.5q16 33 58 89t63 75q20 -20 62 -76t58 -90q4 -8 12.5 -10.5t15.5 1.5q80 45 179 46q26 -71 14.5 -162.5
t-55.5 -166.5q-39 -66 -95 -106z" />
    <glyph glyph-name="dangdifill" unicode="&#xe6d6;" 
d="M815 166q-79 24 -180 34q64 94 104.5 198.5t40.5 181.5q0 108 -78 184t-188.5 76t-188.5 -76t-78 -184q0 -76 40.5 -180.5t104.5 -199.5q-102 -9 -181 -34q-56 -16 -94 -40t-38 -56q0 -43 64.5 -74.5t161 -46.5t208.5 -15q174 0 298 35q136 38 136 101q0 56 -132 96z
M514.5 714q45.5 0 77.5 -32t32 -78t-32 -78t-77.5 -32t-78 32t-32.5 78t32.5 78t78 32zM883 42q-29 -20 -83 -35q-118 -33 -287 -33t-288 33q-54 15 -83 35q-23 15 -23 28q0 4 6.5 11.5t32 21t64.5 25.5q85 26 197 34q38 -50 76 -86q8 -8 18.5 -8t17.5 8q39 36 77 86
q111 -8 195 -34q39 -12 64.5 -25.5t32.5 -21t7 -11.5q0 -13 -24 -28z" />
    <glyph glyph-name="dangdi" unicode="&#xe6d8;" 
d="M664 567q0 62 -44 106t-106 44t-106 -44t-44 -106t44 -106t106 -44t106 44t44 106zM404 567.5q0 45.5 32.5 77.5t78 32t77.5 -32t32 -77.5t-32 -78t-77.5 -32.5t-78 32.5t-32.5 78zM855 155q-69 27 -175 41q54 90 87 183t33 164q0 116 -84 198.5t-202.5 82.5
t-202.5 -82.5t-84 -198.5q0 -111 77 -268q20 -40 43 -79q-106 -13 -176 -41q-92 -36 -92 -89q0 -64 135 -103q124 -36 298.5 -36t298.5 36q136 39 136 103q0 53 -92 89zM267 543q0 99 72 170t174 71t174.5 -71t72.5 -170q0 -69 -36 -165t-93 -185q-3 -3 -4 -6
q-53 -81 -110 -133l-1 -1q-1 -2 -2.5 -2t-3.5 2l-1 1q-95 89 -168.5 237.5t-73.5 251.5zM800 1q-119 -34 -287.5 -34t-287.5 34q-54 16 -80 34t-26 31q0 11 15.5 24t45 26t79.5 24.5t112 17.5q54 -80 110 -133q13 -14 32 -14t32 14q58 54 111 133q62 -7 111.5 -18.5
t79 -24.5t45 -25.5t15.5 -23.5q0 -13 -26.5 -31t-80.5 -34z" />
    <glyph glyph-name="guquantouzi" unicode="&#xe609;" 
d="M647 462v156h-72v-230zM809 627v117h-72v-191zM424 499l61 -61v90h-72v-40zM809 442l-72 -72v-292h-90v202l-72 -72v-130h-90v180l-58 58l-14 -13v-225h-90v135l-31 -31l-41 40v-144h-85v230l-46 45v-320h810v45h-121v364zM166 485v227h-46v-183zM287 362l36 36v40h-72
v-40zM428 458l132 -128l306 300l-52 51h148v-146l-49 48l-353 -345l-129 125l-135 -132l-225 221l45 44l174 -174z" />
    <glyph glyph-name="dixiaofei" unicode="&#xe6dd;" 
d="M308 482q-28 0 -48 -20t-20 -48t20 -48t48 -20t48 20t20 48t-20 48t-48 20zM308.5 386q-11.5 0 -20 8t-8.5 19.5t8.5 20t20 8.5t19.5 -8.5t8 -20t-8 -19.5t-19.5 -8zM555.5 636q38.5 0 66 27.5t27.5 66t-27.5 66t-66 27.5t-66 -27.5t-27.5 -66t27.5 -66t66 -27.5z
M555 783q22 0 38 -16t16 -38t-16 -37.5t-38 -15.5t-37.5 15.5t-15.5 37.5t15.5 38t37.5 16zM962 330q0 125 -78.5 212t-199.5 97h-5q-16 3 -24 3q-13 1 -19 -11l-27 -51h-107l-27 55q-6 11 -18 11q-33 0 -62 -3l-104 76q-8 6 -17.5 3t-13.5 -12l-63 -169l-1 -1
q-36 -47 -61 -125l-55 -11q-16 -3 -16 -19v-130q0 -11 9 -17l61 -41q19 -46 62 -78.5t92 -38.5v-108q0 -8 5.5 -14t14.5 -6h124q8 0 14 6t6 14v35q50 -15 102 -15q48 0 93 11v-31q0 -8 6 -14t15 -6h126q8 0 14 6t6 14v100q71 34 109 100t39 155v3zM288 671l52 -38
q-44 -11 -78 -33zM922 330q0 -81 -34 -138q-35 -60 -102 -89q-12 -5 -12 -18v-93h-86v37q0 9 -8 15.5t-17 3.5q-63 -16 -109 -16q-33 0 -54 4t-58 16l-4 2q-10 3 -18 -3t-8 -17v-42h-84v106q0 9 -6 14.5t-14 5.5q-43 0 -83 29t-56 71q-2 6 -7 9l-58 39v102l50 10q12 2 15 13
q34 110 90 158q49 41 129 53q5 -1 9 1q22 3 47 3l27 -55q6 -11 18 -11h133q12 0 17 11l26 50q3 0 9 -1q4 -1 6 -1h1q106 -8 174 -85q66 -75 67 -181v-3z" />
    <glyph glyph-name="gaoxiaofei" unicode="&#xe6de;" 
d="M900 572h-65l-481 194q-24 10 -47.5 -1t-31.5 -36l-13 -39l-28 4q-24 4 -44 -10.5t-24 -38.5l-13 -73h-26q-25 0 -42.5 -17.5t-17.5 -42.5v-467q0 -25 17.5 -42.5t42.5 -17.5h773q25 0 42.5 17.5t17.5 42.5v467q0 25 -17.5 42.5t-42.5 17.5zM313 717q3 8 10.5 11.5
t15.5 0.5l389 -157h-464zM205 638q1 8 8 13t15 4l21 -4l-27 -79h-28zM920 45q0 -8 -6 -14t-14 -6h-773q-9 0 -14.5 6t-5.5 14v467q0 8 5.5 14t14.5 6h773q8 0 14 -6t6 -14v-467zM513 502q-93 0 -159 -65.5t-66 -158.5t66 -158.5t159 -65.5t158.5 65.5t65.5 158.5
t-65.5 158.5t-158.5 65.5zM328 278q0 72 48.5 124.5t119.5 58.5v-26q-36 -7 -60 -34t-24 -63q-1 -32 23 -56q26 -28 75 -28q42 0 60 -18q12 -13 11 -29v-2q0 -18 -19 -31.5t-45 -13.5q-27 0 -46 17.5t-19 41.5q0 8 -5.5 14t-14 6t-14.5 -6t-6 -14q0 -36 24 -63t60 -34v-28
q-71 7 -119.5 59.5t-48.5 124.5zM536 95v26q30 5 52 22q32 25 33 62q2 32 -21 57q-30 32 -90 32q-32 0 -46 15q-12 12 -12 28v1q0 24 19 41.5t45.5 17.5t45.5 -17.5t19 -41.5q0 -8 6 -14t14 -6t14 6t6 14q0 36 -24.5 63.5t-60.5 33.5v26q68 -9 114.5 -61t46.5 -122
t-46.5 -122t-114.5 -61z" />
    <glyph glyph-name="jianyuede" unicode="&#xe6df;" 
d="M953 498l-99.5 80.5l-199 161l-99.5 80.5l-2 2q-47 31 -91 -4v0l-395 -317l-2 -2q-19 -21 -18 -49t22 -48l1 -1q19 -18 45 -18.5t45 15.5v-429h-57q-8 0 -14 -6t-6 -14t6 -14t14 -6h805q9 0 14.5 6t5.5 14t-5.5 14t-14.5 6h-49v428q18 -15 41 -15h2q27 0 47 18l1 1
q21 20 22 48t-19 49zM819 74h-115v244q0 31 -21.5 52.5t-51.5 21.5t-51.5 -21.5t-21.5 -52.5v-244h-358v356l309 238l310 -239v-355zM598 -30v348q0 14 9.5 24t23.5 10t23.5 -10t9.5 -24v-348h-66zM200 34h358v-65h-358v65zM704 -31v65h115v-65h-115zM932 450q-1 -11 -9 -19
l-2 -2q-8 -8 -20 -7.5t-20 9.5l-2 2l-358 276q-5 4 -12 4t-12 -4l-357 -275q-2 -1 -3 -2q-8 -9 -19.5 -9.5t-20.5 7.5l-1 2q-8 7 -8.5 18.5t6.5 20.5l392 316q22 16 44 2l395 -320q7 -8 7 -19zM366.5 389q-30.5 0 -52 -21.5t-21.5 -51.5v-142h147v142q0 30 -21.5 51.5
t-52 21.5zM400 214h-66v102q0 14 9.5 23.5t23.5 9.5t23.5 -9.5t9.5 -23.5v-102z" />
    <glyph glyph-name="jingjide" unicode="&#xe6e0;" 
d="M311 305q-34 0 -57.5 -22t-23.5 -53v-150h161v150q0 31 -23 53t-57 22zM352 120h-82v110q0 15 11.5 25t29 10t29.5 -10t12 -25v-110zM931 -31h-27v626q4 16 -11 23l-420 204q-2 1 -5 1q-3 1 -6 1q-9 0 -14.5 -5.5t-5.5 -14.5v-272l-302 -161q-1 -1 -2 -1q-11 -6 -11 -18
v-383h-32q-9 0 -14.5 -6t-5.5 -14t5.5 -14t14.5 -6h836q8 0 14 6t6 14t-6 14t-14 6zM481 -26v799l383 -185v-618h-106v449q0 31 -24.5 52.5t-59.5 21.5t-59.5 -21.5t-24.5 -52.5v-449h-109v4zM630 -24v443q0 14 13 24t31 10t31 -10t13 -24v-443h-88zM442 -30h-275v370
l275 146v-512v-4z" />
    <glyph glyph-name="shushide" unicode="&#xe6e1;" 
d="M932 792h-818q-8 0 -14 -6t-6 -14v-90q0 -8 6 -14t14 -6h45v-691h-35q-8 0 -14 -5.5t-6 -14t6 -14.5t14 -6h796q8 0 14 6t6 14.5t-6 14t-14 5.5h-33v691h45q8 0 14 6t6 14v90q0 8 -6 14t-14 6zM847 -26h-240v522q0 35 -24.5 59.5t-59 24.5t-59.5 -24.5t-25 -59.5v-522
h-240v688h648v-688zM479 -24v520q0 18 13 31t31 13t31 -13t13 -31v-520h-88zM912 702h-778v50h778v-50zM382 506q0 28 -20 48.5t-48 20.5t-48 -20.5t-20 -48.5v-113h136v113zM342 433h-56v73q0 12 8 20.5t20 8.5t20 -8.5t8 -20.5v-73zM382 268q0 28 -20 48.5t-48 20.5
t-48 -20.5t-20 -48.5v-173h136v173zM342 135h-56v133q0 12 8 20.5t20 8.5t20 -8.5t8 -20.5v-133zM794 506q0 28 -20 48.5t-48 20.5t-47.5 -20.5t-19.5 -48.5v-113h135v113zM754 433h-56v73q0 12 8 20.5t20 8.5t20 -8.5t8 -20.5v-73zM794 268q0 28 -20 48.5t-48 20.5
t-47.5 -20.5t-19.5 -48.5v-173h135v173zM754 135h-56v133q0 12 8 20.5t20 8.5t20 -8.5t8 -20.5v-133z" />
    <glyph glyph-name="gaoduande" unicode="&#xe6e2;" 
d="M936 -28h-36v575q0 11 -9 17l-366 236q-11 7 -22 0l-370 -236q-9 -6 -9 -17v-575h-26q-9 0 -14.5 -5.5t-5.5 -14t5.5 -14.5t14.5 -6h838q8 0 14 6t6 14.5t-6 14t-14 5.5zM164 537l350 223l346 -223v-565h-272v435q0 29 -20 49t-48 20t-48 -20t-20 -49v-435h-288v565z
M548 -28h-56v435q0 13 8 21t20 8t20 -8t8 -21v-435zM315 478q-28 0 -48 -20t-20 -49v-72h136v72q0 29 -20 49t-48 20zM343 377h-55v32q0 13 8 21t19.5 8t19.5 -8t8 -21v-32zM800 409q0 29 -20 49t-48 20t-48 -20t-20 -49v-72h136v72zM760 377h-56v32q0 13 8 21t19.5 8t20 -8
t8.5 -21v-32zM315 292q-28 0 -48 -20t-20 -49v-193h136v193q0 29 -20 49t-48 20zM343 70h-55v153q0 13 8 21t19.5 8t19.5 -8t8 -21v-153zM800 223q0 29 -20 49t-48 20t-48 -20t-20 -49v-193h136v193zM760 70h-56v153q0 12 8 20.5t19.5 8.5t20 -8.5t8.5 -20.5v-153zM520 523
q33 0 56.5 23.5t23.5 57t-23.5 57t-56.5 23.5t-56.5 -23.5t-23.5 -57t23.5 -57t56.5 -23.5zM520 644q17 0 28.5 -12t11.5 -28.5t-11.5 -28.5t-28.5 -12t-28.5 12t-11.5 28.5t11.5 28.5t28.5 12z" />
    <glyph glyph-name="shehuade" unicode="&#xe6e3;" 
d="M498 432q0 27 -19 46.5t-46 19.5t-46 -19.5t-19 -46.5v-108h130v108zM458 364h-50v68q0 10 7 18t17.5 8t18 -8t7.5 -18v-68zM676 432q0 27 -19 46.5t-46 19.5t-46 -19.5t-19 -46.5v-108h130v108zM636 364h-50v68q0 10 7 18t17.5 8t18 -8t7.5 -18v-68zM498 219
q0 28 -19 47t-46 19t-46 -19t-19 -47v-207h130v207zM458 52h-50v167q0 11 7 18.5t17.5 7.5t18 -7.5t7.5 -18.5v-167zM676 219q0 28 -19 47t-46 19t-46 -19t-19 -47v-207h130v207zM636 52h-50v167q0 11 7 18.5t17.5 7.5t18 -7.5t7.5 -18.5v-167zM936 -23h-63v354
q0 25 -17.5 42.5t-42.5 17.5h-59v116q0 22 -14 38.5t-35 20.5v49q0 25 -18 42.5t-42 17.5h-11v27q0 25 -17.5 42.5t-42.5 17.5h-34v50q0 9 -6 14.5t-14 5.5t-14 -5.5t-6 -14.5v-50h-34q-25 0 -42.5 -17.5t-17.5 -42.5v-27h-10q-25 0 -42.5 -17.5t-17.5 -42.5v-49
q-21 -4 -35.5 -20.5t-14.5 -38.5v-116h-57q-25 0 -42.5 -17.5t-17.5 -42.5v-354h-71q-9 0 -14.5 -5.5t-5.5 -14t5.5 -14t14.5 -5.5h838q8 0 14 5.5t6 14t-6 14t-14 5.5zM813 351q9 0 14.5 -6t5.5 -14v-354h-79v374h59zM446 702q0 8 6 14t14 6h108q9 0 14.5 -6t5.5 -14v-27
h-148v27zM376 615q0 8 6 14t14 6h30h188h31q8 0 14 -6t6 -14v-48h-289v48zM326 507q0 8 6 14t14 6h348q9 0 14.5 -6t5.5 -14v-530h-388v530zM209 331q0 8 6 14t14 6h57v-374h-77v354z" />
    <glyph glyph-name="suoding" unicode="&#xe6e6;" 
d="M758 522h-432v84q0 78 53.5 131.5t131.5 53.5q59 0 106 -32.5t67 -86.5q3 -8 10.5 -11.5t15.5 -0.5t11.5 10.5t0.5 15.5q-25 66 -82.5 105.5t-128.5 39.5q-96 0 -161 -67q-64 -65 -64 -158v-84h-20q-46 0 -78 -32t-32 -78v-366q0 -46 32 -78t78 -32h492q45 0 77.5 32
t32.5 78v366q0 46 -32.5 78t-77.5 32zM828 46q0 -29 -20.5 -49.5t-49.5 -20.5h-492q-29 0 -49.5 20.5t-20.5 49.5v366q0 29 20.5 49.5t49.5 20.5h492q29 0 49.5 -20.5t20.5 -49.5v-366zM509.5 312q-8.5 0 -14 -6t-5.5 -14v-110q0 -8 5.5 -14t14 -6t14.5 6t6 14v110
q0 8 -6 14t-14.5 6z" />
    <glyph glyph-name="wancan" unicode="&#xe6e8;" 
d="M912 166q2 21 2 41q0 146 -94.5 257.5t-235.5 137.5q22 26 22 61q0 38 -27.5 65.5t-66 27.5t-66 -27.5t-27.5 -65.5q0 -35 23 -61q-142 -26 -236 -137.5t-94 -257.5q0 -21 2 -41q-22 -10 -35 -29.5t-13 -44.5q0 -33 23 -56.5t57 -23.5h736q33 0 56.5 23.5t23.5 56.5
q0 25 -14 45t-36 29zM512.5 716q22.5 0 38 -15.5t15.5 -38t-15.5 -38t-38 -15.5t-38 15.5t-15.5 38t15.5 38t38 15.5zM513 568q98 0 181 -48.5t131.5 -131.5t48.5 -181q0 -17 -2 -35h-719q-1 18 -1 34q0 98 48 181.5t131.5 132t181.5 48.5zM882 52h-736q-17 0 -28.5 12
t-11.5 28q0 15 10 26.5t24 13.5h747q15 -2 25 -13.5t10 -26.5q0 -16 -12 -28t-28 -12zM276.5 363q8.5 0 14.5 6t6 14q0 10 12 26t35 34q47 36 77 36q8 0 14 6t6 14.5t-6 14t-14 5.5q-43 0 -102 -44q-62 -49 -62 -92q0 -8 5.5 -14t14 -6z" />
    <glyph glyph-name="wucan" unicode="&#xe6e9;" 
d="M940 442h-262v258l269 85q8 2 11.5 9.5t1 15.5t-9.5 11.5t-15 1.5l-796 -251q-8 -3 -12 -10.5t-1 -14.5q4 -14 19 -14h6l75 24v-115h-141q-9 0 -14.5 -6t-5.5 -14q0 -96 29 -181.5t83 -149.5q124 -148 335.5 -148t335.5 148q54 64 83 149.5t29 181.5q0 8 -5.5 14t-14.5 6
zM638 442h-62v226l62 19v-245zM370 442v161l61 19v-180h-61zM471 635l65 20v-213h-65v193zM266 570l64 20v-148h-64v128zM818 116q-113 -133 -305.5 -133t-305.5 133q-96 115 -102 286h815q-6 -171 -102 -286z" />
    <glyph glyph-name="zaocan" unicode="&#xe6ea;" 
d="M830 489h-45v14q0 25 -17.5 42.5t-42.5 17.5h-600q-25 0 -42.5 -17.5t-17.5 -42.5v-188q0 -68 25.5 -136t72.5 -123q50 -58 112.5 -89.5t129.5 -31.5h40q67 0 129 31.5t112 89.5q65 76 88 172h56q54 0 92.5 38.5t38.5 92.5t-38.5 92t-92.5 38zM656 82q-91 -107 -211 -107
h-40q-120 0 -211 107q-43 50 -66 111t-23 122v188q0 9 5.5 14.5t14.5 5.5h126v-97h-74q-8 0 -14 -6t-6 -14v-190q0 -8 6 -14t14 -6h190q9 0 14.5 6t5.5 14v190q0 8 -5.5 14t-14.5 6h-76v97h434q8 0 14 -5.5t6 -14.5v-34v-154q0 -61 -23.5 -122t-65.5 -111zM347 386v-150
h-150v150h150zM830 268h-45v47v134h45q38 0 64.5 -26.5t26.5 -63.5t-26.5 -64t-64.5 -27zM246 734q19 -17 19 -44q0 -15 -9 -31q-12 -25 -12 -47q0 -9 6 -14.5t14 -5.5t14 5.5t6 14.5q0 13 8 29q13 25 13 49q0 20 -9 39.5t-14.5 25.5t-9.5 9q-2 2 -5 4t-10.5 4.5t-12.5 -3.5
q-8 -8 -7.5 -16t5.5 -14l4 -5v0zM434 661q0 -17 -8.5 -31t-13.5 -18t-9 -6q-2 -1 -4.5 -3.5t-7 -10.5t1.5 -15q2 -4 6 -6.5t7.5 -2.5t7 0.5t4.5 1.5h2q3 2 7 4t13 10t16 17.5t12.5 25.5t5.5 34q0 31 -29 65q-17 18 -17 29q0 32 15 38v0q2 1 5.5 3t9 9.5t3.5 15.5t-9 10.5
t-13 1.5l-6 -2q-17 -4 -31 -23t-14 -53q0 -26 27 -56q19 -22 19 -38zM552 734q18 -16 18 -44q0 -15 -8 -31q-12 -25 -12 -47q0 -9 5.5 -14.5t14 -5.5t14.5 5.5t6 14.5q0 13 8 29q12 25 12 49q0 20 -8.5 39.5t-14.5 25.5t-10 9q-6 6 -14.5 5t-13.5 -7.5t-4.5 -14.5t7.5 -13z
" />
    <glyph glyph-name="ziyouanpai" unicode="&#xe6ec;" 
d="M525 -17h-363q-8 0 -14 5.5t-6 14.5v769q0 8 6 14t14 6h632q8 0 14 -6t6 -14v-363q0 -9 6 -14.5t14 -5.5t14 5.5t6 14.5v363q0 25 -17.5 42.5t-42.5 17.5h-632q-25 0 -42.5 -17.5t-17.5 -42.5v-769q0 -25 17.5 -42.5t42.5 -17.5h363q9 0 14.5 5.5t5.5 14t-5.5 14.5
t-14.5 6zM715 691.5q0 8.5 -5.5 14t-14.5 5.5h-448q-8 0 -14 -5.5t-6 -14t6 -14.5t14 -6h448q9 0 14.5 6t5.5 14.5zM468 568h-221q-8 0 -14 -6t-6 -14.5t6 -14t14 -5.5h221q8 0 14 5.5t6 14t-6 14.5t-14 6zM468 424h-221q-8 0 -14 -6t-6 -14t6 -14t14 -6h221q8 0 14 6t6 14
t-6 14t-14 6zM884 352h-131v188q0 36 -25.5 61.5t-61.5 25.5v0q-36 0 -62 -26t-26 -62v-201q-19 -11 -34 -27q-25 16 -56 13t-52 -25q-26 -25 -26 -61t26 -62l93 -93q3 -3 5 -4q16 -16 46 -29l-1 -95q0 -8 5.5 -14t14.5 -6h268q8 0 14 6t6 14l1 92q39 2 53 22q8 12 10 27.5
t2 48.5v139q0 28 -20 48t-49 20zM464 270.5q14 13.5 33 13.5q13 0 24 -6q-12 -27 -12 -57v-61l-45 44q-14 14 -14 33.5t14 33zM913 145q0 -46 -4 -52q-5 -6 -40 -6q-9 0 -14.5 -6t-5.5 -14l-2 -92h-228l1 89q0 13 -13 18q-33 13 -45.5 26.5t-12.5 36.5v76q0 29 15.5 52
t42.5 34q14 5 12 21q0 1 -0.5 3l-0.5 2v206q0 20 14 34t34 14v0q20 0 33.5 -14t13.5 -33v-208q0 -8 6 -14t14 -6h151q12 0 20.5 -8t8.5 -20v-139z" />
    <glyph glyph-name="bankexing" unicode="&#xe6f0;" 
d="M960 485.5q-4 11.5 -16 13.5l-286 42l-127 258q-6 11 -18.5 11t-17.5 -11l-128 -258l-285 -42q-13 -2 -16.5 -13.5t5.5 -20.5l206 -201l-49 -285q-2 -12 8 -19.5t21 -1.5l256 134l255 -134q4 -2 9 -2q7 0 12 4q10 7 8 19l-49 285l207 201q9 9 5 20.5zM713 285
q-8 -7 -6 -18l44 -254l-229 120q-4 2 -9 2h-1v609l1 1l114 -232q5 -9 15 -11l256 -37z" />
    <glyph glyph-name="wechat" unicode="&#xe669;" 
d="M317 576q-16 0 -28 -9t-12 -23.5t12 -23.5t28 -9q15 0 24 9t9 24t-9 23.5t-24 8.5zM590 384q-10 0 -18 -8.5t-8 -18.5t8 -18.5t18 -8.5q14 0 24 8t10 18.5t-10 19t-24 8.5zM959 695q0 56 -40 96t-96 40h-623q-56 0 -96 -40t-40 -96v-623q0 -56 40 -96t96 -40h623
q56 0 96 40t40 96v623zM404 237q-26 0 -93 13l-93 -46l26 80q-106 75 -106 180q0 94 77.5 160t188.5 66q97 0 174 -53t94 -133h-26q-94 0 -159.5 -61.5t-65.5 -148.5q0 -28 7 -56q-14 -1 -24 -1v0zM797 144l19 -67l-73 41q-53 -14 -80 -14q-94 0 -160 56.5t-66 136.5
t66 136.5t160 56.5q91 0 159 -57t68 -136q0 -83 -93 -153v0zM736 384q-10 0 -18 -8.5t-8 -18.5t8 -18.5t18 -8.5q15 0 24.5 8t9.5 18.5t-9.5 19t-24.5 8.5zM503 511q15 0 24.5 9t9.5 24t-9.5 23.5t-24.5 8.5q-16 0 -27.5 -9t-11.5 -23.5t11.5 -23.5t27.5 -9z" />
    <glyph glyph-name="car2" unicode="&#xe92c;" 
d="M654 143q0 -33 22.5 -56t55 -23t55.5 23t23 55.5t-23 55.5t-55.5 23t-55 -23t-22.5 -55v0zM180 143q0 -33 23 -56t55.5 -23t55.5 23t23 55.5t-23 55.5t-55.5 23t-55.5 -23t-23 -55v0zM98 432l76 102q1 1 4.5 5.5t4.5 5.5t4 4.5t4 4.5t4.5 3.5t5 3.5t5 3t6 2.5t6 1
t7.5 0.5h152q14 0 24 -10t10 -24v-340q0 -14 -10 -24t-24 -10q-6 44 -40 74t-79 30t-78.5 -30t-39.5 -74h-34q-14 0 -24 10t-10 24v170q0 14 6.5 31t13.5 27l6 10v0v0zM309 364v136h-83q-2 0 -5.5 -2t-5.5 -4l-2 -2l-71 -99q-13 -20 -13 -29h180zM478 704h440q14 0 24 -10
t10 -24v-476q0 -14 -10 -24t-24 -10h-68q-6 44 -39.5 74t-78.5 30t-78.5 -30t-40.5 -74h-135q-14 0 -24 10t-10 24v476q0 14 10 24t24 10v0z" />
    <glyph glyph-name="shuju" unicode="&#xe69e;" 
d="M922 77h-794v685q0 9 -8 17t-18 8v0q-9 0 -17 -8t-8 -17v-717q0 -10 8 -18t17 -8h7v0h813q9 0 17 8t8 18v6q0 26 -25 26zM237 122h83q14 0 26 12t12 26v115q0 15 -12 27t-26 12h-83q-15 0 -27 -12t-12 -27v-115q0 -14 12 -26t27 -12zM467 122h90q14 0 26 12t12 26v493
q0 14 -12 26t-26 12h-90q-14 0 -23 -11.5t-9 -26.5v-493q0 -15 9 -26.5t23 -11.5zM710 122h90q14 0 26 12t12 26v339q0 15 -12 27t-26 12h-90q-14 0 -26 -12t-12 -27v-339q13 -38 38 -38z" />
    <glyph glyph-name="tudifangchan" unicode="&#xe6bb;" 
d="M90 -40h422v845h-422v-845zM354 699h105v-106h-105v106zM354 488h105v-106h-105v106zM354 277h105v-106h-105v106zM142 699h106v-106h-106v106zM142 488h106v-106h-106v106zM142 277h106v-106h-106v106zM565 541h369v-53h-369v53zM565 -40h105v211h159v-211h105v475h-369
v-475v0zM565 -40z" />
    <glyph glyph-name="m-shuju-01" unicode="&#xe6d3;" 
d="M150 22v812h-88v-900h900v88h-812zM150 22zM567 487l132 -132l187 188l76 -74v212h-218l79 -77l-124 -125l-132 132l-295 -294l63 -63zM567 487z" />
    <glyph glyph-name="xuanzejiaobiao" unicode="&#xe717;" horiz-adv-x="1040" 
d="M1024 421l-549 -549h549v549zM783 -84l-97 97l37 37l60 -61l170 170l36 -37z" />
    <glyph glyph-name="iconfontmingpian" unicode="&#xe66a;" 
d="M931 768h-838q-38 0 -65 -27t-27 -65v-584q0 -38 27 -64.5t65 -26.5h33q5 -1 10 -1t10 1q2 -1 5 -1t6 1l367 -1h5h12h5h2q4 0 10 1h373q38 0 65 26.5t27 64.5v584q0 38 -27 65t-65 27zM556 65h-15l-1 -1h-1l-392 1h-1h-1v0h-17q-8 0 -14 1q5 65 54 119q65 71 174 71
q110 0 176 -71q49 -54 54 -118q-7 -2 -16 -2zM959 92q0 -11 -8 -19t-20 -8h-294q-2 38 -18 79q-19 47 -54 84q-85 92 -222.5 92t-221.5 -92q-37 -40 -56 -91v539q0 12 8 20t20 8h838q12 0 20 -8t8 -20v-584zM344.5 640q-62.5 0 -107 -44.5t-44.5 -107.5t44.5 -107.5
t107 -44.5t107 44.5t44.5 107.5t-44.5 107.5t-107 44.5zM344.5 400q-36.5 0 -62 26t-25.5 62t25.5 62t62 26t62 -26t25.5 -62t-25.5 -62t-62 -26zM577 641h318v-64h-318v64zM577 513h318v-64h-318v64zM577 385h193v-64h-193v64z" />
    <glyph glyph-name="iconfontfuwushichang" unicode="&#xe66c;" 
d="M889 147q-41 37 -112 68q-79 34 -158 49l-18 4l-88 -133l-89 132l-18 -3q-79 -13 -158 -47q-71 -29 -112 -67q-57 -52 -57 -116q0 -42 12 -78l6 -20h829l7 19q13 36 13 79q0 62 -57 113zM886 -7h-747q-4 19 -4 41q0 39 38 74q35 31 96 57q59 25 129 40l115 -171l114 171
q70 -17 129 -42q134 -58 134 -129q0 -22 -4 -41v0zM270 478v1h41q9 -86 66.5 -144t135.5 -58q71 0 127 50h-127q-63 0 -107.5 52t-44.5 125.5t44.5 125.5t107.5 52q57 0 99.5 -43.5t50.5 -108.5h51q-8 86 -66 144.5t-135 58.5q-79 0 -136.5 -59t-65.5 -145h-52v0
q-8 67 26.5 126.5t96 93t131.5 33.5q91 0 161.5 -59t86.5 -143q3 -18 4 -38q-4 -57 -53 -85.5t-123 -28.5q-41 0 -76 13v-55q36 -9 76 -9q79 0 137.5 27.5t77.5 73.5h1q12 38 12 76q0 116 -89.5 197.5t-215 81.5t-215 -81.5t-89.5 -197.5q0 -47 6 -76h56z" />
    <glyph glyph-name="zhaiquan" unicode="&#xe601;" 
d="M512 832q-91 0 -174 -35.5t-143 -95.5t-95.5 -143t-35.5 -174q0 -149 89 -267q8 15 20 41q2 5 19 39t46.5 95.5t51.5 106.5q12 25 40 26.5t42 -22.5l81 -133q5 -7 14 -7t13 9l108 222l-114 39l260 159l41 -295l-101 55l-159 -331q-11 -16 -19.5 -26t-28.5 -7
q-16 1 -26 13q-8 11 -19 25q-6 7 -20 29q-15 22 -29 45q-15 25 -25 40q-4 7 -11.5 6.5t-10.5 -7.5l-96 -203q124 -100 282 -100q91 0 174 35.5t143 95.5t95.5 143t35.5 174t-35.5 174t-95.5 143t-143 95.5t-174 35.5v0zM512 832z" />
    <glyph glyph-name="che2" unicode="&#xe627;" horiz-adv-x="1434" 
d="M510 54q0 -45 -32.5 -77t-79 -32t-79.5 32t-33 77.5t33 77.5t79.5 32t79 -32t32.5 -78v0zM1189 54q0 -45 -33 -77t-79.5 -32t-79.5 32t-33 77.5t33 77.5t79.5 32t79.5 -32t33 -78v0zM1306 457l-108 141q-2 1 -7 7t-6 7.5t-6 6.5l-6.5 6.5t-6 5.5t-7 5t-7 3.5t-8.5 3.5
t-9 1.5t-10 0.5h-218q-20 0 -34.5 -14t-14.5 -33v-473q0 -19 14.5 -33t34.5 -14q9 62 57 103.5t112.5 41.5t112.5 -41.5t57 -103.5h48q21 0 35 14t14 33v237q0 19 -9.5 43t-18.5 38l-9 14v0zM762 834h-630q-20 0 -34.5 -14t-14.5 -33v-662q0 -19 14.5 -33t34.5 -14h96
q9 62 57.5 103.5t113 41.5t112.5 -41.5t57 -103.5h194q20 0 34 14t14 33v662q0 19 -14 33t-34 14v0z" />
    <glyph glyph-name="qianqianqian" unicode="&#xe628;" 
d="M510.5 836q-91.5 0 -174.5 -35.5t-143 -95.5t-95.5 -143t-35.5 -174.5t35.5 -174.5t95.5 -143t143 -95.5t174.5 -35.5t174.5 35.5t143 95.5t95 143t35 174.5t-35 174.5t-95 143t-143 95.5t-174.5 35.5zM385 646q4 6 21.5 1t22.5 -4t9 3t9 6.5t10 7.5q8 5 18.5 4t14.5 -7
l18 -13q4 0 13 9q17 16 35 9q6 -3 15.5 -11.5t19.5 -8.5q6 0 17 5t19 2q12 -6 10 -17.5t-13 -17.5q-14 -9 -30 -31l-22 -25h-128q-16 16 -24 28q-11 16 -30 29q-8 6 -10.5 15t5.5 16zM725 252q-11 -66 -67.5 -109t-148.5 -43q-91 0 -146.5 46.5t-66.5 108.5q-10 57 11.5 107
t62.5 85q19 17 36 36t25 30l8 11h140q25 -38 73 -78q93 -78 73 -194zM574 297q16 0 17 14q0 5 -4.5 11.5t-12.5 6.5h-47v12q36 37 45 45q14 13 6 22q-10 12 -24 1l-44 -41q-32 33 -39 39q-5 6 -12.5 7.5t-13.5 -3.5q-9 -11 3 -23l44 -47v-12h-49q-6 0 -10 -7t-4 -13
q0 -12 14 -12h49v-35h-52q-5 0 -9 -4.5t-4 -10t4 -11t9 -5.5h52v-17q1 -16 18 -16q7 0 12 5t5 11l-1 17h51q6 0 10 5t4 11q-1 15 -18 15h-46v35h47z" />
    <glyph glyph-name="meishi3" unicode="&#xe62b;" 
d="M722 820h-434q-93 0 -159 -66.5t-66 -159.5v-434q0 -93 66 -159.5t159 -66.5h434q93 0 159.5 66.5t66.5 159.5v434q0 93 -66.5 159.5t-159.5 66.5zM678 545.5q10 -10.5 1 -20.5l-74 -73q-7 -7 -15 -4q-9 5 -9 16l4 8l74 73q9 11 19 0.5zM713 183q-5 -14 -19 -18.5
t-25 5.5q-1 0 -4 4q-74 73 -114 115q-1 0 -4 4q-20 -18 -44 -15q-21 2 -41 24q-3 -4 -3 -5l-124 -124q-12 -12 -27 -9q-13 4 -18 18t4 25l128 128q0 1 5 4l-5 4l-44 45l-55 53q-24 24 -31 49q-15 53 18 95q4 4 9 4.5t9 -3.5q182 -182 188 -187q88 -89 188 -188q12 -13 9 -28
zM720 486q-1 -1 -3 -2q-3 -4 -30 -31l-41 -41q-21 -21 -46 -22q-25 0 -43.5 12t-26.5 32q-17 44 14 77l74 74q11 10 20.5 0t-0.5 -20l-73 -73q-12 -12 -12.5 -28t8.5 -29q12 -14 31 -15.5t33 12.5q17 16 72 72q8 7 16 5q6 -3 9 -10t-2 -13z" />
    <glyph glyph-name="pinicon" unicode="&#xe67d;" 
d="M981 896h-938h-43v-43v-938v-43h43h938h43v43v938v43h-43zM981 -85h-938v938h938v-938zM661 427h43v42v128v43h-43h-298h-43v-43v-128v-42h43h298zM363 597h298v-128h-298v128zM533 384v-43v-149v-43h43h149h43v43v149v43h-43h-149h-43zM725 341v-149h-149v149h149z
M299 149h149h43v43v149v43h-43h-149h-43v-43v-149v-43h43zM299 341h149v-149h-149v149z" />
    <glyph glyph-name="huoqibaozhang" unicode="&#xe67e;" 
d="M981 896h-938h-43v-43v-938v-43h43h938h43v43v938v43h-43zM981 427h-42v-86h42v-426h-426v42h-86v-42h-426v426h42v86h-42v426h426v-42h86v42h426v-426zM425 555h-86v85h-42v-107q0 -9 5.5 -15t15.5 -6h107v43zM508 557q-8 71 -62 119.5t-126 48.5q-80 0 -136 -55.5
t-56 -134.5q0 -55 29 -100.5t78 -69.5v-173q0 -8 5.5 -13.5t13.5 -5.5h36q7 -28 29 -46t50 -18t50.5 18t28.5 46h215q7 -28 29 -46t50.5 -18t50.5 18t28 46h32v0q7 0 11 4q9 9 9 17v0v177q0 11 -7 17l-77 75q-6 6 -19 6h-111v66q0 8 -5.5 14t-13.5 6l-132 2v0zM745 149
q-18 0 -29.5 12t-11.5 29q0 16 12.5 28t28.5 12q17 0 28.5 -12t11.5 -28t-12 -28.5t-28 -12.5zM659 429h105l70 -71v-145h-13q-8 27 -29 43.5t-47 16.5q-28 0 -49.5 -17t-27.5 -43h-7v216h-2zM171 535q0 61 43.5 104.5t105.5 43.5t104.5 -43t42.5 -105q0 -60 -43 -103.5
t-104 -43.5t-105 43t-44 104zM254 356v0v0zM369 149q-17 0 -28.5 12t-11.5 29q0 16 12 28t28 12q17 0 29 -12t12 -28.5t-12 -28.5t-29 -12zM619 213h-171q-8 27 -29 43.5t-48 16.5t-48.5 -17t-28.5 -43h-17v137v0q23 -7 45 -7q73 0 127.5 49.5t62.5 121.5h107v-301z" />
    <glyph glyph-name="gupiao1" unicode="&#xe6e7;" 
d="M510 -58q-90 0 -171 35q-79 33 -139.5 94t-93.5 139q-35 82 -35 171t35 171q33 78 93.5 139t139.5 94q81 34 170.5 34t170.5 -34q79 -33 139.5 -94t94.5 -139q34 -82 34 -171t-34 -171q-34 -78 -94.5 -139t-139.5 -94q-81 -35 -170 -35v0zM509.5 799q-113.5 0 -209.5 -56
t-152 -152.5t-56 -209.5t56 -209.5t152 -152.5t209.5 -56t210 56t152.5 152.5t56 209.5t-56 209.5t-152.5 152.5t-210 56zM719 380v264q1 3 -2 7q-2 4 -7 4h-1q-3 0 -6 -2l-220 -146q-4 -3 -4 -8v0q-1 -9 8 -10l68 -13l-102 -219l-51 47q-3 2 -6 2q-6 0 -9 -6l-87 -180v0
v-1.5v-0.5v-0.5v-1v-1v-1v-1v-1t0.5 -1l0.5 -0.5l0.5 -0.5l0.5 -0.5v-1h1l0.5 -0.5t1.5 -0.5v0v0q1 0 1.5 -0.5l0.5 -0.5h1h1h0.5h1t1 0.5t1 0.5h1t0.5 0.5t0.5 0.5t0.5 1h1l98 96l50 -46q1 -2 4 -4q6 -3 11 1l2 2t1 2l170 259l52 -48q7 -6 13 2q2 2 2 6v0zM656 441v0
l-0.5 0.5l-0.5 0.5v0v0q-1 0 -1.5 0.5l-0.5 0.5h-1.5h-0.5h-0.5h-1h-1h-1t-1 -0.5l-0.5 -0.5l-0.5 -0.5t-1.5 -0.5v0l-1 -1v0v-1h-0.5h-0.5l-171 -260l-49 45q-1 1 -1 2q-3 2 -6 2h-1v0q-5 0 -7 -3q-1 0 -1 -1l-66 -65l58 123l52 -47q2 -2 6 -2q6 -1 9 5l111 240q1 2 1 5
q0 8 -8 9l-59 11l190 125v-228l-44 41v0z" />
    <glyph glyph-name="yuyin" unicode="&#xe687;" 
d="M827.5 444.5q-9.5 0.5 -17 -6t-7.5 -15.5q0 -5 -1 -13q-2 -17 -6 -35q-11 -58 -36 -107q-76 -150 -248 -150t-248 150q-25 49 -36 107q-4 18 -6 35q-1 8 -1 13q0 9 -7.5 15.5t-17 6t-16 -7.5t-6.5 -17q1 -22 8 -54q13 -65 40 -119q82 -163 265 -175v-85h-196
q-10 0 -16.5 -7t-6.5 -17t6.5 -16.5t16.5 -6.5h442q10 0 17 6.5t7 16.5t-7 17t-17 7h-199v85q185 10 268 175q27 54 40 119q7 32 8 54q0 10 -6.5 17t-16 7.5zM510 196q80 0 137 56.5t57 136.5v246q0 80 -57 136.5t-137 56.5t-136.5 -56.5t-56.5 -136.5v-246
q0 -80 56.5 -136.5t136.5 -56.5zM364 635q0 61 43 103.5t103.5 42.5t103.5 -42.5t43 -103.5v-246q0 -60 -43 -103t-103.5 -43t-103.5 42.5t-43 103.5v246z" />
    <glyph glyph-name="z-flower" unicode="&#xe683;" 
d="M735 752v0q-60 -2 -115 -24q-16 44 -43.5 70t-60 26t-60 -26t-43.5 -69q-58 23 -121 23h-0.5h-1.5v0h-34l-1 -262q0 -80 56 -136t136 -56h48v-166q-34 32 -86 49q-33 10 -76 9.5t-55 -8.5q-10 -7 1.5 -35t41 -61t64.5 -51q44 -23 110 -15v-58q0 -7 5 -12.5t12.5 -5.5
t12.5 5.5t5 12.5v138l6 -4q54 -8 90 10q27 14 49 39t30.5 46t1.5 26q-9 6 -41.5 6.5t-57.5 -7.5q-52 -16 -78 -51v133h46q80 0 136 56t56 136l1 262h-34zM459 746q14 22 30 33q13 10 27 10t28 -10q16 -11 29 -33q9 -15 16 -33q-39 -21 -71 -52q-33 32 -74 53q7 18 15 32z
M570 332h-123q-65 0 -111.5 46.5t-46.5 111.5l1 227h1h1q60 0 114 -23q53 -22 93.5 -62.5t62.5 -93.5q23 -54 23 -114q0 -47 -15 -92zM734 490v0q0 -65 -46 -111q-34 -34 -81 -44q12 44 12 89q0 121 -77 212q38 37 88 58t104 23v-227z" />
    <glyph glyph-name="shouye14" unicode="&#xe612;" 
d="M483 834h53q83 -5 160 -39t134 -93q57 -55 90.5 -129.5t41.5 -155.5v-61q-7 -94 -51 -179t-117 -143q-101 -85 -250 -100h-58q-151 12 -257 100q-73 58 -117 143.5t-50 179.5v55q6 88 45 168.5t104 137.5q110 102 272 116zM426 805q-95 -19 -175 -80.5t-123 -148.5
q-46 -89 -45.5 -192.5t45.5 -191.5q36 -72 96.5 -127t135.5 -83q77 -29 161 -27t159 34q90 37 155.5 112.5t90.5 169.5q34 117 -3.5 238.5t-130.5 199.5q-73 65 -171 90.5t-195 5.5zM646 598h76v-161v-161h-76v322zM533 560h76v-284h-76v284zM419 522h76q1 -82 0 -246h-76
v77.5v91.5v77zM288 427q37 1 75 0v-151h-75v151zM231 238q264 1 529 0v-56h-529v56z" />
    <glyph glyph-name="guquanzhiya" unicode="&#xe652;" horiz-adv-x="1232" 
d="M623 930q-107 0 -204.5 -42t-168 -112.5t-112.5 -168t-42 -204.5q0 -106 40 -202t114 -171q10 -9 22.5 -9t22 9t9.5 22t-9 22q-66 66 -101 151t-35 178q0 94 36.5 180t99 148.5t148.5 99t180.5 36.5t180.5 -36.5t148 -99t99 -148.5t37 -180q0 -13 9 -22.5t22 -9.5
t22.5 9.5t9.5 22.5q0 107 -42 204.5t-112.5 168t-168.5 112.5t-205 42v0zM1088 261l-87 -10q-15 -1 -21 -15q-7 -14 2 -26l9 -12l-384 -286l-103 129q-8 9 -20.5 11t-22.5 -6q-102 -76 -118 -86q-10 -5 -14.5 -16t-0.5 -22q4 -12 15.5 -18t24.5 -2q9 3 106 76l103 -128
q10 -12 25 -12q10 0 18 6l408 304l6 -9q8 -11 21 -11h3q15 2 21 16l36 80q6 14 -3 26.5t-24 10.5v0zM840 683q10 20 10 27q-4 27 -31 30q-27 0 -40 -23l-156 -234l-155 234q-14 23 -41 23q-27 -3 -30 -30q3 -14 10 -27q3 -4 3 -7l139 -213h-81q-38 0 -38 -30q4 -24 38 -27
h118v-61h-118q-38 0 -38 -31q4 -23 38 -27h118v-135q0 -34 37 -34t37 34v135h119q34 4 37 27q0 31 -37 31h-119v61h119q34 3 37 27q0 30 -37 30h-81l138 213q0 3 4 7v0zM840 683z" />
    <glyph glyph-name="4042" unicode="&#xe66f;" 
d="M932 310v-79q44 95 44 199q0 94 -36.5 179.5t-98.5 147.5t-147.5 98.5t-179.5 36.5t-179.5 -36.5t-147.5 -98.5t-98.5 -147.5t-36.5 -179.5v-5v-5l166 206h97l-143 -216h46v55l99 155v-210v-100v-82h-99v82h-150q32 -120 121.5 -208.5t210.5 -119.5q-7 -19 -17 -36.5
t-30.5 -38.5t-43.5 -26q-20 -4 -4 -5q52 -1 155 29q107 31 183 81q94 27 169.5 90.5t117.5 151.5h-97v82h-167v88v12v10l167 206h94l-141 -216h47v59l99 154v-213v-100v0zM366 288q-7 17 -7 36v214q0 20 7 36.5t19.5 29t29.5 19.5t36 7h82q19 0 36 -7q16 -7 28 -19l-88 -129
v23q0 7 -5 11.5t-12 4.5t-12 -4.5t-5 -11.5v-72l-102 -150q-4 6 -7 12zM624 324q0 -19 -7 -36t-19.5 -29.5t-29 -19.5t-36.5 -7h-81q-19 0 -36 7t-29 20q-5 5 -10 12l99 144v-50q0 -7 4.5 -12t12 -5t12 5t4.5 12v99l93 136q10 -12 16 -26q7 -16 7 -36v-214v0z" />
    <glyph glyph-name="shiju" unicode="&#xe716;" 
d="M687 729l-47 27l-58 -104l47 -28zM477 654h54v118h-54v-118zM888 -20l-7 54l-99 -12l-20 139q41 14 65 51t18 82l-11 93v0l-7 54v0l-12 99v1l-6 54l-1 -1v3l-54 -6l1 -3l-135 -17v5l-54 -5l1 -6v0l6 -54v0l12 -100v0l7 -54v0l11 -93q6 -42 35.5 -72t69.5 -36l20 -141
l-89 -11l7 -54l89 12v0l54 6v0zM639 418q-7 59 -12 99l134 17q3 -18 7 -52t5 -47zM450 565l-54 6v0l-134 17v0l-54 7v-1v1l-7 -54v-1l-12 -99v0l-7 -54v0l-11 -93q-5 -45 18.5 -82t64.5 -51l-19 -139l-100 12l-7 -54l99 -12v0l54 -6v0l89 -12l7 54l-89 11l20 141
q41 6 70.5 36t34.5 72l11 93v0l7 54v0l12 100v0l7 54v0v0zM377 418l-134 17q4 35 12 99l134 -17q-2 -19 -6.5 -54.5t-5.5 -44.5zM425 652l-58 104l-47 -27l59 -105z" />
    <glyph glyph-name="zixuangu1" unicode="&#xe65f;" 
d="M512 805q-86 0 -162.5 -32.5t-135 -91t-91 -135t-32.5 -162t32.5 -162.5t91 -135.5t135 -91t162 -32.5t162.5 32.5t135.5 91t91 135.5t32.5 162.5t-32.5 162t-91 135t-135.5 91t-162 32.5v0zM194 702q62 62 144.5 97t173.5 35v0q91 0 173.5 -35t144.5 -97t97 -144.5
t35 -173.5t-35 -173.5t-97 -144.5t-144.5 -97t-173.5 -35t-173.5 35t-144.5 97t-97 144.5t-35 173.5t35 173.5t97 144.5v0zM286 277q-10 -10 -19.5 0.5t0.5 20.5l150 136q7 6 16 3l138 -48l86 100q9 11 20 2t1 -20l-92 -108q-6 -7 -15 -4l-141 48zM591 563q-6 0 -10 4t-4 10
t4 10t10 4h156q6 0 10 -4t4 -10v-167q0 -6 -4 -10.5t-10 -4.5t-10 5l-124 110q-11 9 -1.5 19.5t20.5 1.5l101 -90v122h-142zM664 344h29v-153h-29v153zM551 290h28v-99h-28v99zM430 316h29v-125h-29v125z" />
    <glyph glyph-name="shouquan2" unicode="&#xe719;" 
d="M505.5 820q89.5 0 171.5 -35.5t141.5 -94.5t94.5 -141t35 -172t-35 -172t-94.5 -141t-141.5 -94.5t-171.5 -35.5t-171.5 35.5t-141.5 94.5t-94.5 141t-35 172t35 172t94.5 141t141.5 94.5t171.5 35.5zM505 -6q104 0 192.5 51.5t139.5 139.5t51 192t-51 192t-139.5 139.5
t-192 51.5t-192 -51.5t-139.5 -139.5t-51 -192t51 -192t139.5 -139.5t191.5 -51.5v0zM321 427q30 -31 72.5 -37.5t79.5 12.5l115 -115l-43 -42q-9 -9 -9 -21.5t9 -21t21.5 -8.5t21.5 9l42 42l42 -42l-42 -43q-9 -9 -9 -21t9 -21t21 -9t21 9l85 85l-237 237q30 38 27 88.5
t-38 86.5q-39 39 -94 39t-94 -39t-39 -94t39 -94zM363.5 572.5q21.5 21.5 51.5 21.5t51.5 -21.5t21.5 -51.5t-21.5 -51.5t-51.5 -21.5t-51.5 21.5t-21.5 51.5t21.5 51.5z" />
    <glyph glyph-name="liangyou2" unicode="&#xe62c;" 
d="M511 831q-142 0 -258 -81l26 -25q105 72 232 72q111 0 206 -55.5t150 -151t55 -207.5t-55 -207.5t-150 -151t-206.5 -55.5t-206 55.5t-149.5 151t-55 207.5q0 140 81 248l-26 25q-92 -120 -92 -272q0 -91 35.5 -174t95.5 -142.5t143 -95t174 -35.5t173.5 35.5t142.5 95
t95.5 142.5t35.5 174t-35.5 174t-95.5 142.5t-142.5 95t-173.5 35.5zM219 690zM195 690q0 10 7 17t17 7t17 -7t7 -17t-7 -17t-17 -7t-17 7t-7 17zM536 546q9 0 15 6.5t6 15t-6 15t-15 6.5t-15 -6.5t-6 -15t6 -15t15 -6.5zM581.5 501q8.5 0 15 6t6.5 14.5t-6.5 15t-15 6.5
t-14.5 -6.5t-6 -15t6 -14.5t14.5 -6zM743 379q14 18 14 43.5t-15 46.5q-14 20 -42 22q-3 35 -37 55q-19 12 -35 27.5t-42 45.5q-28 33 -68 34q-41 1 -74 -33v-1q-31 -33 -45 -46t-35 -26q-34 -21 -35 -56q-34 -2 -51 -21q-11 -12 -16.5 -31t-1.5 -37q5 -25 29 -35
q6 -2 13 -4q2 -22 2 -49q0 -51 -10 -96q-5 -28 -1 -44q6 -24 27.5 -28.5t77.5 -1.5q67 4 115 4q61 0 129 -6q25 -2 34 -2q32 0 46 24q7 19 7 29t-4 34q-9 50 -9 91q0 21 3 44q14 4 24 17zM378 525q23 14 38 28t47 48l1 1q24 25 54 25q27 -1 48 -25q28 -32 45 -49t39 -30
q20 -12 24 -32q-9 0 -28 -1q-74 -4 -136 -4q-56 0 -126 3q-19 1 -29 1q1 21 23 35zM699 177q-5 -9 -13 -10.5t-42 1.5q-69 7 -131 7q-48 0 -116 -4q-46 -3 -61.5 -1.5t-17.5 10.5q-2 10 2 33q10 47 10 101q0 27 -2 49q11 1 34 5q77 16 149 16q63 0 141 -17q28 -6 40 -7
q-2 -21 -2 -42q0 -43 9 -95q6 -36 0 -46zM701 386q-11 0 -44 7q-81 17 -146 17q-75 0 -154 -16q-30 -6 -40 -6v0q-10 0 -18 4q-11 4 -14 16q-2 11 2 24t10 20q11 12 42 12q11 0 43 -1q72 -4 128 -4q63 0 138 5q30 1 40 1q24 0 33 -12q9 -13 9.5 -30t-8.5 -28q-7 -9 -21 -9z
" />
    <glyph glyph-name="my2line" unicode="&#xe7eb;" 
d="M513 -10h-365q-15 0 -21 6t-6 21q0 159 150 229q55 26 141 37q92 11 187 1q83 -9 139 -31q102 -41 143 -126q25 -53 22 -119q0 -7 -5 -12t-12 -5q-3 -1 -10 -1h-363v0zM866 30l-8 48q-25 89 -120 133q-57 26 -146 35q-95 10 -184 -3q-93 -14 -150 -48q-71 -42 -91 -120
q-2 -4 -8 -45h707v0zM670 593q1 -71 -21 -123q-19 -43 -51 -70q-43 -36 -94 -32t-90 46q-38 41 -50 98q-16 69 -4 141q10 57 59.5 94t108.5 30q55 -6 93 -42t47 -91q1 -10 1.5 -29t0.5 -22v0zM394 598q3 -53 4 -59q10 -66 52 -106q29 -27 63.5 -26.5t63.5 27.5q41 40 49 98
q4 28 4 91q0 43 -29.5 76t-72.5 39q-44 5 -81 -19.5t-47 -67.5q-1 -3 -6 -53v0z" />
    <glyph glyph-name="my2shape" unicode="&#xe7ec;" 
d="M513 -36h-390q-15 0 -21.5 6.5t-6.5 22.5q0 87 44 151.5t128 97.5q63 26 153 36q87 9 168 2q123 -12 197 -50q101 -52 133 -151q13 -41 12 -95q-1 -8 -6 -13t-13 -6h-3h-4h-3q-129 -1 -388 -1v0v0zM680 608q2 -76 -23 -132q-19 -44 -52 -73q-45 -39 -100 -36t-97 48
q-41 43 -54 105q-17 74 -4 151q10 62 63.5 101t115.5 32q67 -9 108.5 -55t42.5 -114v-8.5v-10v-8.5v0z" />
    </font>
</defs>
</svg>
